<svg width="158" height="23" viewBox="0 0 158 23" fill="" xmlns="http://www.w3.org/2000/svg">
<path d="M33.9625 5.79639V9.67441H32.6872C29.6775 9.67441 28.3002 11.0776 28.3002 14.0882V22.0483H24.0407V5.97498H28.3002V8.1181H28.3512C29.2694 6.66384 30.8508 5.79639 33.0188 5.79639H33.9625Z" fill=""/>
<path d="M46.0328 17.3794L48.5324 19.8797C46.8745 21.5126 45.2931 22.3035 43.2781 22.3035C39.5798 22.3035 37.7944 20.39 37.7944 16.6395V9.77646L37.9984 9.39376H35.6519V5.97498H37.9984L37.7944 5.59228V3.67879L42.0538 1.40811V5.59228L41.8243 5.97498H46.798V9.39376H41.8243L42.0538 9.77646V16.6395C42.0538 17.9662 42.717 18.6551 43.6607 18.6551C44.5279 18.6551 45.2166 18.2724 46.0328 17.3794Z" fill=""/>
<path d="M55.6483 5.97498V22.0483H51.3888V5.97498H55.6483ZM55.8269 2.5562C55.8269 3.8829 54.8832 4.90342 53.5313 4.90342C52.154 4.90342 51.2358 3.8829 51.2358 2.5562C51.2358 1.22952 52.154 0.208984 53.5313 0.208984C54.8832 0.208984 55.8269 1.22952 55.8269 2.5562Z" fill=""/>
<path d="M72.1005 16.9202L74.8806 19.7011C73.1207 21.3595 70.7742 22.3035 68.1215 22.3035C62.3062 22.3035 59.526 18.6806 59.526 14.1137C59.526 9.4703 62.6378 5.71985 68.1726 5.71985C71.0802 5.71985 73.2227 6.66384 74.8041 8.24566L71.9985 11.0521C70.9272 9.92954 69.7794 9.39376 68.1981 9.39376C65.2904 9.39376 63.7855 11.4348 63.7855 14.1392C63.7855 16.7161 65.0608 18.6551 68.147 18.6551C69.7284 18.6551 70.9017 18.0938 72.1005 16.9202Z" fill=""/>
<path d="M93.8752 5.97498V22.0739H89.6157V20.6706H89.5647C88.519 21.7167 86.8611 22.3035 85.1012 22.3035C80.2295 22.3035 78.036 19.7266 78.0615 15.7721V5.97498H82.321V15.5425C82.321 17.4815 83.1372 18.6296 85.7388 18.6296C88.0598 18.6296 89.6157 17.4815 89.6157 15.3639V5.97498H93.8752Z" fill=""/>
<path d="M102.86 0.617198V22.0483H98.6008V0.617198H102.86Z" fill=""/>
<path d="M118.547 15.4914L118.955 15.0832C118.802 15.0577 118.088 15.0577 117.986 15.0577C117.297 15.0577 116.634 15.0577 115.767 15.1087C114.925 15.1342 114.033 15.2108 113.242 15.3894C111.635 15.721 110.972 16.2823 110.972 17.0988C110.972 18.2724 112.502 18.7826 114.16 18.7826C115.461 18.7826 118.547 18.6296 118.547 17.0222V15.4914ZM122.807 12.0727V22.0739H118.547V21.1554H118.496C117.297 21.9463 115.64 22.329 114.007 22.329C110.844 22.329 106.738 21.1809 106.738 17.0477C106.738 12.1747 113.395 11.69 117.476 11.69C117.604 11.69 118.751 11.69 118.904 11.7155L118.471 11.3073C118.369 9.95505 117.144 9.26619 115.231 9.26619C113.625 9.26619 111.967 9.64889 110.513 10.6184L107.886 7.96502C110.079 6.40871 112.553 5.74536 115.282 5.74536C119.618 5.74536 122.807 7.65886 122.807 12.0727Z" fill=""/>
<path d="M136.397 17.3794L138.896 19.8797C137.238 21.5126 135.657 22.3035 133.642 22.3035C129.944 22.3035 128.158 20.39 128.158 16.6395V9.77646L128.362 9.39376H126.016V5.97498H128.362L128.158 5.59228V3.67879L132.418 1.40811V5.59228L132.188 5.97498H137.162V9.39376H132.188L132.418 9.77646V16.6395C132.418 17.9662 133.081 18.6551 134.025 18.6551C134.892 18.6551 135.58 18.2724 136.397 17.3794Z" fill=""/>
<path d="M145.119 12.2512H153.843L153.434 11.843C152.848 10.1592 151.547 9.21517 149.507 9.21517C147.415 9.21517 146.165 10.2102 145.502 11.843L145.119 12.2512ZM158 14.1392C158 14.5474 157.974 15.1598 157.898 15.67H145.068L145.451 16.0782C146.063 17.7111 147.543 18.7826 149.736 18.7826C151.343 18.7826 152.644 18.2979 153.919 17.2518L156.495 19.8542C154.582 21.5126 152.414 22.3035 149.736 22.3035C143.793 22.3035 140.911 18.7061 140.911 14.1392C140.911 9.31722 144.048 5.71985 149.507 5.71985C155.22 5.71985 158 9.44479 158 14.1392Z" fill=""/>
<path d="M7.65455 14.4813H13.4068L13.0218 14.1191L11.1195 10.1345L10.5533 8.45911L10.508 8.48175L9.94186 10.1345L8.03954 14.1191L7.65455 14.4813ZM12.2292 3.72739L21.0387 22.0657H16.8264L14.9015 18.0358L15.1279 17.6962H5.91076L6.13723 18.0358L4.23491 22.0657H0L10.5308 0.208984L12.2292 3.72739Z" fill=""/>
</svg>
