<svg width="122" height="41" viewBox="0 0 122 41" fill="none" xmlns="http://www.w3.org/2000/svg">
<path d="M21.0734 40.0412C16.5328 40.0412 12.6906 39.2383 9.54708 37.6324C6.44234 36.0265 4.07497 33.7454 2.44498 30.789C0.814995 27.8327 0 24.3289 0 20.2777C0 16.1899 0.8344 12.6679 2.5032 9.71159C4.172 6.71877 6.57817 4.41941 9.72172 2.81351C12.8653 1.17111 16.6298 0.349915 21.0152 0.349915C23.8871 0.349915 26.5844 0.75139 29.107 1.55434C31.6296 2.32079 33.7253 3.39748 35.3941 4.78439L32.8909 10.2591C31.0668 8.90864 29.204 7.94145 27.3023 7.35748C25.4007 6.77352 23.305 6.48154 21.0152 6.48154C16.6686 6.48154 13.3698 7.66771 11.1189 10.0401C8.90673 12.4124 7.80067 15.825 7.80067 20.2777C7.80067 24.7669 8.94554 28.1795 11.2353 30.5153C13.525 32.8512 16.9208 34.0191 21.4227 34.0191C22.7034 34.0191 24.0035 33.9279 25.3231 33.7454C26.6814 33.5264 28.0203 33.2161 29.3398 32.8147V23.8362H19.9092V18.6353H35.5687V37.1944C33.6671 38.0703 31.4161 38.7638 28.8159 39.2748C26.2157 39.7857 23.6349 40.0412 21.0734 40.0412Z" fill=""/>
<path d="M57.5345 40.0412C54.3133 40.0412 51.5384 39.4755 49.2099 38.3441C46.8813 37.2127 45.0767 35.6068 43.796 33.5264C42.5541 31.446 41.9331 28.9824 41.9331 26.1356C41.9331 23.3618 42.5347 20.9347 43.7378 18.8543C44.9796 16.7739 46.6679 15.1498 48.8024 13.9818C50.9757 12.7774 53.4401 12.1752 56.1955 12.1752C60.2317 12.1752 63.4141 13.3796 65.7426 15.7885C68.11 18.1973 69.2937 21.4821 69.2937 25.6429V27.6685H48.9188C49.4621 32.4497 52.3728 34.8403 57.6509 34.8403C59.2421 34.8403 60.8332 34.6213 62.4244 34.1833C64.0156 33.7089 65.4709 32.9789 66.7905 31.9935L68.8279 36.5922C67.4696 37.6506 65.762 38.4901 63.7051 39.1105C61.6482 39.731 59.5913 40.0412 57.5345 40.0412ZM56.4866 16.8287C54.3521 16.8287 52.6251 17.4491 51.3056 18.69C49.986 19.931 49.1905 21.6099 48.9188 23.7267H63.2394C63.0842 21.5004 62.4244 19.8032 61.2601 18.6353C60.1347 17.4309 58.5435 16.8287 56.4866 16.8287Z" fill=""/>
<path d="M85.4767 40.0412C83.0705 40.0412 80.8196 39.7675 78.7239 39.22C76.6282 38.6726 74.8817 37.8879 73.4846 36.8659L75.3475 32.3767C76.7834 33.2891 78.394 34.0008 80.1792 34.5118C81.9644 34.9863 83.7497 35.2235 85.5349 35.2235C87.3977 35.2235 88.7755 34.9315 89.6681 34.3476C90.5995 33.7271 91.0652 32.9242 91.0652 31.9387C91.0652 30.4058 89.8621 29.4204 87.456 28.9824L81.6346 27.9422C76.7058 27.0663 74.2414 24.6574 74.2414 20.7157C74.2414 18.9638 74.7459 17.4491 75.755 16.1717C76.8028 14.8943 78.2387 13.9088 80.0628 13.2154C81.8868 12.5219 83.9825 12.1752 86.3499 12.1752C88.368 12.1752 90.3084 12.4489 92.1713 12.9964C94.0341 13.5074 95.6253 14.2921 96.9448 15.3505L94.9655 19.8397C93.8401 18.9638 92.4818 18.2703 90.8906 17.7593C89.3382 17.2484 87.844 16.9929 86.4081 16.9929C84.5064 16.9929 83.0899 17.3031 82.1585 17.9236C81.2659 18.544 80.8196 19.3652 80.8196 20.3872C80.8196 21.9931 81.9256 22.9785 84.1378 23.3435L89.9592 24.3837C92.4818 24.8217 94.3834 25.6246 95.6641 26.7925C96.9836 27.9605 97.6434 29.5299 97.6434 31.5008C97.6434 34.1651 96.5373 36.2637 94.3252 37.7966C92.1131 39.293 89.1636 40.0412 85.4767 40.0412Z" fill=""/>
<path d="M116.237 40.0412C108.708 40.0412 104.943 36.5374 104.943 29.5299V17.8688H99.4712V12.7227H104.943V4.72964H112.22V12.7227H120.836V17.8688H112.22V29.1466C112.22 30.8985 112.628 32.2125 113.443 33.0884C114.258 33.9643 115.577 34.4023 117.401 34.4023C117.944 34.4023 118.507 34.3476 119.089 34.2381C119.671 34.0921 120.273 33.9461 120.894 33.8001L122 38.8368C121.301 39.2018 120.409 39.4938 119.322 39.7127C118.274 39.9317 117.246 40.0412 116.237 40.0412Z" fill=""/>
</svg>
