<svg width="158" height="24" viewBox="0 0 158 24" fill="none" xmlns="http://www.w3.org/2000/svg">
<path d="M11.3887 23.8646C9.13748 23.8646 7.15107 23.3999 5.42952 22.4705C3.73004 21.5191 2.39473 20.1803 1.42359 18.4544C0.474531 16.7063 0 14.6485 0 12.2808C0 9.97953 0.474531 7.96593 1.42359 6.23998C2.37266 4.51402 3.74107 3.17531 5.52884 2.22382C7.33868 1.25021 9.52373 0.763401 12.084 0.763401C13.2538 0.763401 14.3353 0.896167 15.3285 1.1617C16.3437 1.42723 17.3038 1.81446 18.2088 2.32339L18.3412 6.97018H18.0101L16.1561 3.51828C15.8692 2.9651 15.6044 2.5668 15.3616 2.32339C15.1188 2.07999 14.8098 1.89191 14.4346 1.75914C14.0814 1.6485 13.7504 1.57106 13.4414 1.5268C13.1544 1.46042 12.7682 1.42723 12.2826 1.42723C10.9142 1.42723 9.7003 1.79233 8.64088 2.52254C7.60353 3.25275 6.79793 4.41445 6.22408 6.00763C5.65023 7.60082 5.36331 9.69188 5.36331 12.2808C5.36331 14.8476 5.62816 16.9387 6.15787 18.554C6.70965 20.1693 7.48214 21.3531 8.47535 22.1054C9.46855 22.8357 10.6163 23.2008 11.9185 23.2008C12.1171 23.2008 12.3047 23.1897 12.4813 23.1676C12.6799 23.1233 12.8675 23.0791 13.0441 23.0348C13.4634 22.9684 13.7393 22.7914 13.8718 22.5037C14.0042 22.2161 14.0704 21.8731 14.0704 21.4748V14.9029C14.0704 14.0399 13.629 13.5089 12.7461 13.3097L11.2232 12.9114V12.5795H20.5593V12.9114L20.0958 13.0442C19.2571 13.3097 18.8378 13.8629 18.8378 14.7038V21.9063C17.6901 22.548 16.5203 23.0348 15.3285 23.3667C14.1587 23.6986 12.8454 23.8646 11.3887 23.8646Z" fill=""/>
<path d="M21.7264 23.2671V22.9352L22.223 22.8025C22.6644 22.6697 22.9623 22.4705 23.1168 22.205C23.2934 21.9395 23.3817 21.5965 23.3817 21.1761V10.7872C23.3817 10.3004 23.2934 9.94634 23.1168 9.72507C22.9623 9.48166 22.6644 9.31571 22.223 9.2272L21.7264 9.09443V8.76252L27.4207 6.83742L27.7518 7.16933L28.0498 10.0238V10.2893C28.3588 9.66975 28.756 9.10549 29.2416 8.59656C29.7492 8.0655 30.301 7.63401 30.8969 7.3021C31.5149 6.97018 32.1219 6.80423 32.7178 6.80423C33.5565 6.80423 34.1966 7.03657 34.638 7.50125C35.0794 7.96592 35.3002 8.55231 35.3002 9.26039C35.3002 10.0127 35.0794 10.5991 34.638 11.0195C34.2187 11.4178 33.711 11.617 33.1151 11.617C32.1881 11.617 31.3715 11.1523 30.6652 10.2229L30.599 10.1566C30.3783 9.84677 30.1245 9.68081 29.8375 9.65868C29.5506 9.61443 29.2857 9.74719 29.043 10.057C28.8223 10.2561 28.6346 10.4995 28.4801 10.7872C28.3477 11.0527 28.2153 11.3625 28.0829 11.7165V20.9769C28.0829 21.862 28.4691 22.4152 29.2416 22.6365L30.301 22.9352V23.2671H21.7264Z" fill=""/>
<path d="M44.1324 6.80423C45.5671 6.80423 46.792 7.10295 47.8073 7.70039C48.8226 8.27571 49.5951 9.0723 50.1248 10.0902C50.6765 11.0859 50.9524 12.2255 50.9524 13.5089C50.9524 13.7523 50.9414 14.0068 50.9193 14.2723C50.8973 14.5157 50.8531 14.737 50.7869 14.9361H40.9211C40.9431 17.3259 41.3625 19.0518 42.1791 20.114C43.0178 21.154 44.2538 21.674 45.8871 21.674C46.9907 21.674 47.8845 21.4969 48.5687 21.1429C49.253 20.7889 49.893 20.2689 50.4889 19.5829L50.82 19.8816C50.1358 21.0986 49.2198 22.0501 48.0721 22.7361C46.9465 23.422 45.5891 23.765 44 23.765C42.4329 23.765 41.0425 23.4331 39.8285 22.7693C38.6146 22.0833 37.6656 21.1097 36.9814 19.8484C36.2971 18.5872 35.955 17.0825 35.955 15.3344C35.955 13.5199 36.3523 11.9821 37.1469 10.7208C37.9415 9.43741 38.9567 8.4638 40.1927 7.79997C41.4508 7.13614 42.764 6.80423 44.1324 6.80423ZM44.0331 7.46806C43.393 7.46806 42.8413 7.6672 42.3778 8.0655C41.9363 8.44167 41.5832 9.12762 41.3184 10.1234C41.0756 11.097 40.9431 12.4799 40.9211 14.2723H46.5823C46.803 11.8604 46.7148 10.1234 46.3175 9.06124C45.9202 7.99912 45.1587 7.46806 44.0331 7.46806Z" fill=""/>
<path d="M60.9122 6.80423C62.3468 6.80423 63.5717 7.10295 64.587 7.70039C65.6023 8.27571 66.3748 9.0723 66.9045 10.0902C67.4563 11.0859 67.7322 12.2255 67.7322 13.5089C67.7322 13.7523 67.7211 14.0068 67.6991 14.2723C67.677 14.5157 67.6328 14.737 67.5666 14.9361H57.7008C57.7229 17.3259 58.1422 19.0518 58.9589 20.114C59.7976 21.154 61.0335 21.674 62.6668 21.674C63.7704 21.674 64.6643 21.4969 65.3485 21.1429C66.0327 20.7889 66.6727 20.2689 67.2687 19.5829L67.5997 19.8816C66.9155 21.0986 65.9996 22.0501 64.8519 22.7361C63.7262 23.422 62.3689 23.765 60.7797 23.765C59.2127 23.765 57.8222 23.4331 56.6083 22.7693C55.3944 22.0833 54.4453 21.1097 53.7611 19.8484C53.0769 18.5872 52.7348 17.0825 52.7348 15.3344C52.7348 13.5199 53.1321 11.9821 53.9266 10.7208C54.7212 9.43741 55.7365 8.4638 56.9724 7.79997C58.2305 7.13614 59.5437 6.80423 60.9122 6.80423ZM60.8128 7.46806C60.1728 7.46806 59.621 7.6672 59.1575 8.0655C58.7161 8.44167 58.3629 9.12762 58.0981 10.1234C57.8553 11.097 57.7229 12.4799 57.7008 14.2723H63.3621C63.5828 11.8604 63.4945 10.1234 63.0972 9.06124C62.6999 7.99912 61.9385 7.46806 60.8128 7.46806Z" fill=""/>
<path d="M69.3821 23.2671V22.9352L69.8456 22.8025C70.6181 22.5812 71.0043 22.0391 71.0043 21.1761V10.7872C71.0043 10.3004 70.9271 9.94634 70.7726 9.72507C70.6181 9.48166 70.3201 9.31571 69.8787 9.2272L69.3821 9.09443V8.76252L75.0433 6.83742L75.3744 7.16933L75.6393 9.16081C76.4118 8.47486 77.2836 7.91061 78.2547 7.46806C79.2258 7.0255 80.1859 6.80423 81.135 6.80423C82.5917 6.80423 83.7063 7.20252 84.4788 7.99912C85.2734 8.79571 85.6706 10.0127 85.6706 11.6502V21.2093C85.6706 22.0722 86.09 22.6144 86.9287 22.8357L87.2267 22.9352V23.2671H79.4134V22.9352L79.8438 22.8025C80.6163 22.5591 81.0026 22.0169 81.0026 21.1761V10.588C81.0026 9.17188 80.2963 8.4638 78.8837 8.4638C77.9126 8.4638 76.8532 8.9506 75.7055 9.92422V21.2093C75.7055 22.0722 76.0917 22.6144 76.8642 22.8357L77.1622 22.9352V23.2671H69.3821Z" fill=""/>
<path d="M103.664 23.3667L96.5788 3.58467C96.4243 3.14211 96.2146 2.79914 95.9498 2.55573C95.707 2.2902 95.3649 2.09106 94.9235 1.95829L94.1289 1.69276V1.36085H103.664V1.69276L102.637 1.99148C102.13 2.12425 101.843 2.35659 101.777 2.6885C101.732 3.02041 101.788 3.42977 101.942 3.91658L106.842 18.4876L111.775 3.88339C111.951 3.37445 112.029 2.95403 112.007 2.62212C112.007 2.2902 111.753 2.05786 111.245 1.9251L110.384 1.69276V1.36085H115.019V1.69276L114.125 1.95829C113.706 2.06893 113.408 2.26808 113.232 2.55573C113.055 2.82126 112.889 3.17531 112.735 3.61786L106.114 23.3667H103.664Z" fill=""/>
<path d="M118.618 5.07828C117.868 5.07828 117.228 4.84594 116.698 4.38126C116.19 3.89445 115.936 3.28594 115.936 2.55573C115.936 1.8034 116.19 1.19489 116.698 0.73021C117.228 0.265531 117.868 0.0331909 118.618 0.0331909C119.369 0.0331909 119.998 0.265531 120.505 0.73021C121.013 1.19489 121.267 1.8034 121.267 2.55573C121.267 3.28594 121.013 3.89445 120.505 4.38126C119.998 4.84594 119.369 5.07828 118.618 5.07828ZM114.712 23.2671V22.9352L115.175 22.8025C115.616 22.6697 115.914 22.4705 116.069 22.205C116.245 21.9395 116.334 21.5854 116.334 21.1429V10.754C116.334 10.2893 116.245 9.94634 116.069 9.72507C115.914 9.48166 115.616 9.31571 115.175 9.2272L114.712 9.12762V8.79571L120.77 6.83742L121.101 7.16933L121.002 11.8825V21.1761C121.002 21.6186 121.079 21.9727 121.234 22.2382C121.41 22.5037 121.708 22.7029 122.127 22.8357L122.459 22.9352V23.2671H114.712Z" fill=""/>
<path d="M124.024 23.2671V22.9352L124.421 22.8025C125.215 22.5369 125.613 21.9837 125.613 21.1429V3.38552C125.613 2.94297 125.524 2.61105 125.348 2.38978C125.171 2.14637 124.862 1.96935 124.421 1.85872L123.99 1.75914V1.42723L130.049 0L130.446 0.298722L130.314 4.94551V16.297C130.314 17.1157 130.314 17.9344 130.314 18.7531C130.336 19.5497 130.347 20.3463 130.347 21.1429C130.347 21.5854 130.435 21.9505 130.612 22.2382C130.788 22.5037 131.086 22.7029 131.506 22.8357L131.936 22.9352V23.2671H124.024Z" fill=""/>
<path d="M133.497 23.2671V22.9352L133.894 22.8025C134.688 22.5369 135.086 21.9837 135.086 21.1429V3.38552C135.086 2.94297 134.997 2.61105 134.821 2.38978C134.644 2.14637 134.335 1.96935 133.894 1.85872L133.463 1.75914V1.42723L139.522 0L139.919 0.298722L139.787 4.94551V16.297C139.787 17.1157 139.787 17.9344 139.787 18.7531C139.809 19.5497 139.82 20.3463 139.82 21.1429C139.82 21.5854 139.908 21.9505 140.085 22.2382C140.261 22.5037 140.559 22.7029 140.979 22.8357L141.409 22.9352V23.2671H133.497Z" fill=""/>
<path d="M151.18 6.80423C152.615 6.80423 153.84 7.10295 154.855 7.70039C155.87 8.27571 156.643 9.0723 157.172 10.0902C157.724 11.0859 158 12.2255 158 13.5089C158 13.7523 157.989 14.0068 157.967 14.2723C157.945 14.5157 157.901 14.737 157.834 14.9361H147.969C147.991 17.3259 148.41 19.0518 149.227 20.114C150.065 21.154 151.301 21.674 152.935 21.674C154.038 21.674 154.932 21.4969 155.616 21.1429C156.301 20.7889 156.941 20.2689 157.536 19.5829L157.868 19.8816C157.183 21.0986 156.267 22.0501 155.12 22.7361C153.994 23.422 152.637 23.765 151.048 23.765C149.481 23.765 148.09 23.4331 146.876 22.7693C145.662 22.0833 144.713 21.1097 144.029 19.8484C143.345 18.5872 143.003 17.0825 143.003 15.3344C143.003 13.5199 143.4 11.9821 144.194 10.7208C144.989 9.43741 146.004 8.4638 147.24 7.79997C148.498 7.13614 149.812 6.80423 151.18 6.80423ZM151.081 7.46806C150.441 7.46806 149.889 7.6672 149.425 8.0655C148.984 8.44167 148.631 9.12762 148.366 10.1234C148.123 11.097 147.991 12.4799 147.969 14.2723H153.63C153.851 11.8604 153.762 10.1234 153.365 9.06124C152.968 7.99912 152.206 7.46806 151.081 7.46806Z" fill=""/>
</svg>
