<svg width="119" height="25" viewBox="0 0 119 25" fill="none" xmlns="http://www.w3.org/2000/svg">
<path fill-rule="evenodd" clip-rule="evenodd" d="M43.0571 0.994591C45.7073 2.37079 46.0677 4.87833 43.8123 6.25343C42.2277 7.21967 40.9956 7.1932 40.9956 6.19313C40.9956 5.76883 40.7393 4.88163 40.4264 4.22203C39.0333 1.28616 34.7242 1.6042 32.9424 4.77391C31.1566 7.95098 31.0497 15.7041 32.7424 19.2709C34.4389 22.8465 39.9577 23.3911 43.5274 20.3357C44.8694 19.1867 45.0047 19.1433 45.2121 19.7963C45.8184 21.7064 44.0322 23.894 41.2548 24.6434C38.6535 25.3452 33.7756 24.9066 31.5651 23.772C27.8119 21.8454 25.8555 18.1385 25.7997 12.8477C25.75 8.1793 26.5578 5.90157 29.1995 3.25983C31.903 0.556328 33.6484 -0.0540103 38.238 0.0996773C40.7404 0.183507 41.9151 0.401901 43.0571 0.994591ZM62.7534 0.358887C68.2957 1.89797 71.5371 8.03848 70.4639 14.9654C69.4458 21.538 65.5724 24.9809 59.1965 24.9809C54.0546 24.9809 50.7794 23.1484 48.8311 19.1805C47.8656 17.2145 47.7976 16.7737 47.7976 12.48C47.7976 8.18518 47.8652 7.74582 48.8322 5.77729C50.6702 2.03401 54.1351 0.0316559 58.8278 0.00040367C60.2433 -0.00915584 62.01 0.152255 62.7534 0.358887ZM19.1017 11.0791C21.1651 16.8807 23.0671 21.8858 23.3289 22.2013C23.5907 22.5167 24.1984 22.7748 24.679 22.7748C25.407 22.7748 25.5533 22.9609 25.5533 23.8874V25L14.3393 24.797V23.8779C14.3393 23.1076 14.5477 22.9289 15.6261 22.7748C17.2237 22.5465 17.3729 21.8641 16.4302 19.0981L15.7412 17.0759L7.23618 16.8693L6.62584 18.7073C6.29016 19.718 6.06845 21.0052 6.13279 21.5678C6.2317 22.4263 6.45745 22.6204 7.53731 22.7748C8.6157 22.9289 8.82417 23.1076 8.82417 23.8779V24.797H0V23.8779C0 23.2179 0.222441 22.9271 0.789026 22.8462C1.22288 22.7844 1.83322 22.4517 2.14538 22.1064C2.45753 21.7615 4.29958 17.1796 6.23869 11.9241C8.17817 6.6689 9.94851 1.90679 10.1728 1.34204C10.568 0.347855 10.6567 0.318809 12.966 0.422861L15.3511 0.53059L19.1017 11.0791ZM88.2817 0.889438C93.2655 2.36969 94.4561 8.17599 90.4896 11.6586C89.7447 12.3127 88.9755 12.8477 88.7803 12.8477C88.1199 12.8477 88.42 13.565 90.6609 17.3472C93.6553 22.4017 94.0318 22.7748 96.1371 22.7748C97.0724 22.7748 98.0365 22.5763 98.2791 22.3336C98.9071 21.7056 98.9071 3.25431 98.2791 2.62633C98.0365 2.38366 97.2919 2.18512 96.6246 2.18512C95.5646 2.18512 95.4113 2.06489 95.4113 1.23432V0.283514L111.037 0.53059L113.226 1.63508C117.026 3.5525 118.942 7.07481 118.942 12.1402C118.942 15.4475 117.838 18.9058 116.152 20.8747C114.282 23.0602 111.843 24.1948 107.986 24.6742C104.235 25.1404 91.6654 24.8709 90.18 24.2926C88.745 23.7341 87.7773 22.4892 85.4793 18.2455C83.6093 14.7926 83.3597 14.4934 82.2622 14.3871L81.072 14.2717L81.0775 18.0638C81.0808 20.1493 81.2062 22.0491 81.3566 22.2855C81.507 22.5215 82.2078 22.7697 82.9137 22.837C84.0053 22.9403 84.1972 23.0962 84.1972 23.8779V24.797H72.4317V23.8779C72.4317 23.0962 72.6236 22.9403 73.7152 22.837C74.4212 22.7697 75.1219 22.5215 75.2723 22.2855C75.4227 22.0491 75.5481 17.6156 75.5514 12.4329C75.5573 2.25093 75.5779 2.35645 73.5347 2.12556C72.7181 2.03364 72.4012 1.78656 72.314 1.17402L72.1967 0.346753H79.3252C84.5406 0.346753 86.9441 0.49235 88.2817 0.889438ZM56.4324 3.01239C55.7628 3.46757 54.9065 4.43786 54.5289 5.16916C53.5767 7.01488 53.0876 11.8358 53.4925 15.3846C54.08 20.5372 55.4408 22.4296 58.7329 22.673C61.0882 22.8469 62.6335 22.0174 63.5494 20.0879C65.3576 16.2769 65.3275 8.34255 63.4913 4.80406C62.2001 2.31565 58.7469 1.43948 56.4324 3.01239ZM81.072 12.1123H82.5188C85.6959 12.1123 86.9548 10.7037 86.9548 7.14871C86.9548 4.96179 86.2647 3.15762 85.2837 2.78112C84.9565 2.65574 83.8748 2.55279 82.8802 2.55279H81.072V12.1123ZM104.235 22.844L106.166 22.5825C108.535 22.2616 109.75 21.6641 110.962 20.2236C112.453 18.4521 112.875 16.7038 112.875 12.2961C112.876 5.42285 111.244 2.91348 106.581 2.6164L104.235 2.46712V22.844ZM11.4383 4.96142C10.7063 6.84575 8.27265 14.0709 8.27265 14.3592C8.27265 14.5389 9.77938 14.686 11.6211 14.686C14.4779 14.686 14.9378 14.6033 14.7533 14.1224C14.5323 13.547 11.9549 5.22651 11.8012 4.59375C11.7549 4.40145 11.5913 4.56691 11.4383 4.96142Z" fill="white"/>
</svg>
