<svg width="156" height="46" viewBox="0 0 156 46" fill="none" xmlns="http://www.w3.org/2000/svg">
<path d="M5.16772 6.2968C5.16772 2.99641 5.16772 2.38844 5.21115 1.69362C5.25458 0.933663 5.42828 0.56454 6.01454 0.455974C6.27509 0.412549 6.40537 0.390836 6.6225 0.390836C6.79621 0.390836 6.92649 0.347409 6.92649 0.195418C6.92649 0.0434256 6.7745 0 6.47051 0C5.73227 0 4.36434 0.0651385 3.84322 0.0651385C3.32211 0.0651385 1.95418 0 0.803386 0C0.477689 0 0.325697 0.0434256 0.325697 0.195418C0.325697 0.347409 0.455976 0.390836 0.69482 0.390836C0.998804 0.390836 1.36793 0.412549 1.54163 0.455974C2.25817 0.607967 2.43187 0.955376 2.4753 1.69362C2.51872 2.38844 2.51872 2.99641 2.51872 6.2968V10.1183C2.51872 12.1159 2.51872 13.8312 2.41016 14.7432C2.3233 15.3729 2.21474 15.8506 1.78048 15.9374C1.58506 15.9808 1.3245 16.0243 0.998804 16.0243C0.738246 16.0243 0.651394 16.0894 0.651394 16.198C0.651394 16.35 0.803386 16.4151 1.08566 16.4151C1.95418 16.4151 3.32211 16.35 3.82151 16.35C4.36434 16.35 5.73227 16.4151 6.9482 16.4151C7.18705 16.4151 7.36075 16.35 7.36075 16.198C7.36075 16.0894 7.25219 16.0243 7.07848 16.0243C6.79621 16.0243 6.31852 15.9808 6.01454 15.9374C5.47171 15.8506 5.27629 15.3729 5.23286 14.7649C5.16772 13.8312 5.16772 12.1159 5.16772 10.1183V8.14241H5.27629L5.51514 8.46811C5.97111 9.09779 10.2486 14.1135 11.204 14.9603C12.1376 15.7854 12.7239 16.2631 13.8964 16.3717C14.3524 16.4151 14.7432 16.4151 15.3946 16.4151H17.2837C17.6962 16.4151 17.8048 16.35 17.8048 16.198C17.8048 16.0677 17.6745 16.0243 17.5225 16.0243C17.2619 16.0243 16.8277 15.9591 16.1763 15.6986C15.0038 15.2426 14.0267 14.2655 13.0713 13.3536C12.2245 12.5502 7.96872 7.96871 7.18705 6.94819C7.92529 6.16652 11.204 2.90956 11.8771 2.25816C12.8107 1.34621 13.549 0.890237 14.2221 0.62968C14.6347 0.477689 15.1775 0.390836 15.4815 0.390836C15.6986 0.390836 15.8072 0.347409 15.8072 0.195418C15.8072 0.0434256 15.6552 0 15.438 0C14.7649 0 13.5707 0.0651385 12.8976 0.0651385C12.3113 0.0651385 11.1171 0 10.6611 0C10.4223 0 10.3137 0.0434256 10.3137 0.195418C10.3137 0.325696 10.4006 0.369122 10.596 0.412549C10.8131 0.455974 10.9 0.607967 10.9 0.84681C10.9 1.21593 10.4223 1.75876 9.81433 2.47529C9.18465 3.21354 6.01454 6.44879 5.27629 7.25218H5.16772V6.2968Z" fill=""/>
<path d="M19.1852 11.052C19.1852 12.8324 19.1852 14.3089 19.0984 15.0689C19.0333 15.6117 18.9247 15.8723 18.5339 15.9591C18.3601 16.0026 18.143 16.0243 17.8607 16.0243C17.6219 16.0243 17.5568 16.1328 17.5568 16.2197C17.5568 16.35 17.687 16.4151 17.9259 16.4151C18.6858 16.4151 19.9886 16.35 20.4229 16.35C20.944 16.35 22.2468 16.4151 23.5062 16.4151C23.7233 16.4151 23.8753 16.35 23.8753 16.2197C23.8753 16.1328 23.7884 16.0243 23.5713 16.0243C23.289 16.0243 22.8548 16.0026 22.5942 15.9591C22.0297 15.8723 21.8994 15.59 21.8342 15.0906C21.7474 14.3089 21.7474 12.8324 21.7474 11.052V7.795C21.7474 4.99401 21.7474 4.4729 21.7908 3.88665C21.8342 3.23525 21.9862 2.97469 22.5074 2.88784C22.7245 2.84442 22.8765 2.8227 23.0719 2.8227C23.2673 2.8227 23.3759 2.77928 23.3759 2.60557C23.3759 2.49701 23.2239 2.45358 22.985 2.45358C22.2468 2.45358 21.0091 2.49701 20.5315 2.49701C19.9886 2.49701 18.6858 2.45358 17.9693 2.45358C17.6653 2.45358 17.5133 2.49701 17.5133 2.60557C17.5133 2.77928 17.6219 2.8227 17.8173 2.8227C18.0562 2.8227 18.295 2.84442 18.5121 2.90956C18.9247 3.03983 19.1201 3.25696 19.1635 3.88665C19.1852 4.4729 19.1852 4.99401 19.1852 7.795V11.052Z" fill=""/>
<path d="M29.4388 6.36194H29.5039C29.873 6.68764 31.8923 8.92408 33.9768 10.9217C35.9744 12.8542 38.3629 15.134 39.5571 16.2414C39.7525 16.4368 40.0131 16.6322 40.3388 16.6322C40.4907 16.6322 40.6427 16.4585 40.6427 16.046L40.8599 4.40776C40.8816 3.36553 41.0336 3.03983 41.5547 2.88784C41.7935 2.8227 41.9455 2.8227 42.1409 2.8227C42.3581 2.8227 42.4666 2.73585 42.4666 2.62729C42.4666 2.47529 42.2929 2.45358 42.0324 2.45358C41.0987 2.45358 40.3822 2.49701 40.165 2.49701C39.7525 2.49701 38.732 2.45358 37.7332 2.45358C37.4509 2.45358 37.2555 2.47529 37.2555 2.62729C37.2555 2.73585 37.3206 2.8227 37.5595 2.8227C37.82 2.8227 38.276 2.8227 38.5583 2.93127C39.0143 3.10497 39.188 3.43067 39.2097 4.55975L39.4051 12.7673H39.3182C39.036 12.5067 36.4955 9.90117 35.1927 8.6201C32.4135 5.90596 29.5473 2.97469 29.3085 2.73585C28.9828 2.41015 28.7222 2.12788 28.4834 2.12788C28.288 2.12788 28.1577 2.38844 28.1577 2.75756L27.984 13.701C27.9623 15.3077 27.8971 15.8071 27.3977 15.9374C27.1372 16.0026 26.7898 16.0243 26.5292 16.0243C26.3555 16.0243 26.2252 16.1111 26.2252 16.2197C26.2252 16.3934 26.3989 16.4151 26.6595 16.4151C27.6366 16.4151 28.5485 16.35 28.7222 16.35C29.0696 16.35 29.9599 16.4151 31.1975 16.4151C31.4581 16.4151 31.6318 16.3717 31.6318 16.2197C31.6318 16.1111 31.5232 16.0243 31.3061 16.0243C31.0021 16.0243 30.633 16.0026 30.3073 15.894C29.9382 15.7637 29.6993 15.3294 29.6559 13.8964L29.4388 6.36194Z" fill=""/>
<path d="M58.6007 13.1364C58.6007 12.2245 58.6007 11.4862 58.6224 10.9217C58.6441 10.2703 58.8395 10.0097 59.3606 9.92289C59.5778 9.87946 59.7298 9.85775 59.8818 9.85775C60.012 9.85775 60.1206 9.7709 60.1206 9.66233C60.1206 9.51034 59.9903 9.48863 59.7298 9.48863C59.1001 9.48863 58.1013 9.53205 57.4933 9.53205C56.9288 9.53205 55.5608 9.48863 54.562 9.48863C54.3015 9.48863 54.1495 9.51034 54.1495 9.66233C54.1495 9.7709 54.2798 9.85775 54.4535 9.85775C54.714 9.85775 55.0397 9.87946 55.1917 9.92289C55.7997 10.0966 55.9951 10.292 56.0168 10.9217C56.0385 11.4862 56.0385 12.1811 56.0385 13.093V14.7866C56.0385 15.1123 55.9517 15.3077 55.6694 15.438C55.2134 15.6334 54.8226 15.6334 54.3232 15.6334C50.2411 15.6334 47.679 12.7456 47.679 8.77209C47.679 6.51393 48.3738 5.146 49.4377 4.27748C50.7622 3.21354 52.0867 3.19183 53.129 3.19183C55.2786 3.19183 56.7116 4.01692 57.2762 4.60318C57.7756 5.12429 57.8841 5.71055 57.9276 6.12309C57.9493 6.27509 57.9927 6.36194 58.123 6.36194C58.275 6.36194 58.3835 6.23166 58.3835 5.94939C58.3835 3.62609 58.5138 3.12669 58.5138 2.90956C58.5138 2.77928 58.4704 2.71414 58.2533 2.69242C57.7973 2.67071 57.1242 2.56215 56.7333 2.49701C56.3425 2.41015 54.6706 2.19302 53.3461 2.19302C51.7393 2.19302 50.024 2.3233 48.2001 3.38724C46.4413 4.40776 44.8563 6.4705 44.8563 9.42349C44.8563 14.5261 49.0035 16.6539 53.6935 16.6539C55.1917 16.6539 57.0808 16.4585 58.3618 15.8289C58.6007 15.6986 58.6007 15.6769 58.6007 15.1775V13.1364Z" fill=""/>
<path d="M64.3808 11.052C64.3808 12.7456 64.3808 14.2004 64.2939 14.982C64.2288 15.5249 64.1202 15.8723 63.7294 15.9591C63.5557 16.0026 63.3386 16.0243 63.0563 16.0243C62.8174 16.0243 62.7523 16.1328 62.7523 16.2197C62.7523 16.35 62.8826 16.4151 63.1214 16.4151C63.5123 16.4151 63.9899 16.3934 64.4459 16.3717C64.9019 16.3717 65.3144 16.35 65.5316 16.35C66.0093 16.35 66.7041 16.3934 67.4641 16.4585C68.224 16.502 69.0491 16.5671 69.7439 16.5671C73.2615 16.5671 75.2808 15.2643 76.1493 14.3958C77.235 13.3318 78.2338 11.5731 78.2338 9.24978C78.2338 7.05676 77.387 5.51513 76.4316 4.55975C74.3471 2.45358 71.1336 2.45358 68.7451 2.45358C67.5943 2.45358 66.2264 2.49701 65.6401 2.49701C65.0973 2.49701 63.8814 2.45358 62.8826 2.45358C62.6003 2.45358 62.4483 2.49701 62.4483 2.62729C62.4483 2.75756 62.5786 2.8227 62.774 2.8227C63.0563 2.8227 63.382 2.84442 63.534 2.88784C64.1419 3.06155 64.3156 3.25696 64.3591 3.88665C64.3808 4.4729 64.3808 4.99401 64.3808 7.795V11.052ZM66.9429 7.51273C66.9429 6.05796 66.9429 4.53804 66.9646 3.90836C66.9646 3.69123 67.0298 3.60437 67.2035 3.53924C67.3555 3.45238 67.9852 3.40896 68.376 3.40896C69.8742 3.40896 71.9587 3.60437 73.7174 5.16772C74.5642 5.90596 75.4979 7.42588 75.4979 9.7709C75.4979 11.6816 75.1071 13.3318 73.8694 14.3524C72.7186 15.3077 71.4376 15.6117 69.7005 15.6117C68.2023 15.6117 67.4423 15.2209 67.2035 14.8735C67.0515 14.6781 67.0081 14.0267 66.9864 13.5707C66.9646 13.2016 66.9429 11.7902 66.9429 9.83603V7.51273Z" fill=""/>
<path d="M88.5921 16.6539C93.521 16.6539 96.6043 13.3318 96.6043 9.09779C96.6043 4.86373 93.6078 2.19302 88.7875 2.19302C82.9901 2.19302 80.7754 6.27509 80.7754 9.42349C80.7754 12.7022 83.0335 16.6539 88.5921 16.6539ZM89.3738 15.6551C85.7694 15.6551 83.5981 12.6587 83.5981 8.85895C83.5981 4.29919 86.0951 3.17011 88.223 3.17011C91.3063 3.17011 93.7598 5.68883 93.7598 9.7709C93.7598 15.0255 90.72 15.6551 89.3738 15.6551Z" fill=""/>
<path d="M99.9756 14.5695C99.8887 15.1775 99.715 15.9157 99.1939 15.9808C98.8899 16.0243 98.7596 16.0243 98.6076 16.0243C98.4122 16.0243 98.3036 16.1111 98.3036 16.198C98.3036 16.3717 98.4556 16.4151 98.6511 16.4151C99.259 16.4151 100.171 16.35 100.54 16.35C100.888 16.35 101.756 16.4151 102.559 16.4151C102.842 16.4151 103.015 16.3717 103.015 16.198C103.015 16.1111 102.885 16.0243 102.711 16.0243C102.538 16.0243 102.364 16.0026 102.038 15.9374C101.713 15.8723 101.452 15.742 101.452 15.3946C101.452 15.0906 101.474 14.8518 101.517 14.5261L102.429 7.31732H102.494C103.124 8.59839 104.253 10.9217 104.405 11.2691C104.622 11.7902 106.142 14.6129 106.598 15.4597C106.902 16.0243 107.119 16.3934 107.358 16.3934C107.575 16.3934 107.684 16.2197 108.118 15.3512L112.222 7.10018H112.287L113.351 15.0906C113.416 15.6117 113.373 15.8289 113.264 15.8723C113.134 15.9157 113.047 15.9808 113.047 16.0677C113.047 16.1763 113.155 16.2631 113.611 16.2848C114.371 16.3283 117.085 16.4151 117.563 16.4151C117.845 16.4151 118.063 16.35 118.063 16.198C118.063 16.0894 117.932 16.0243 117.759 16.0243C117.52 16.0243 117.216 16.0026 116.673 15.8506C116.087 15.6769 115.913 15.1775 115.739 14.0267L114.002 2.62729C113.937 2.23645 113.72 2.04103 113.568 2.04103C113.394 2.04103 113.221 2.19302 113.069 2.49701L107.944 12.9193L102.82 2.62729C102.559 2.12788 102.429 2.04103 102.234 2.04103C102.082 2.04103 101.908 2.21474 101.865 2.51872L99.9756 14.5695Z" fill=""/>
<path d="M123.683 16.6539C124.704 16.6539 125.963 16.5454 126.875 15.894C128.265 14.9169 128.786 13.8095 128.786 12.4416C128.786 10.7697 128.004 9.35835 125.485 7.96871L124.704 7.53445C122.988 6.57907 122.684 5.92768 122.684 5.10258C122.684 3.84322 123.922 3.12669 125.29 3.12669C126.527 3.12669 127.135 3.6478 127.418 3.99521C127.83 4.4729 127.917 5.03744 127.917 5.21114C127.917 5.42828 127.982 5.53684 128.113 5.53684C128.265 5.53684 128.351 5.34142 128.351 4.95059C128.351 3.49581 128.417 2.97469 128.417 2.73585C128.417 2.60557 128.33 2.54043 128.156 2.49701C127.657 2.36673 126.679 2.19302 125.442 2.19302C122.793 2.19302 120.622 3.6478 120.622 5.90596C120.622 7.53445 121.36 8.77209 123.618 10.0966L124.725 10.748C126.419 11.7468 126.614 12.5502 126.614 13.3536C126.614 14.6563 125.616 15.6986 123.965 15.6986C122.771 15.6986 121.338 15.2426 120.926 13.8747C120.817 13.549 120.752 13.1581 120.752 12.9193C120.752 12.789 120.73 12.6153 120.556 12.6153C120.404 12.6153 120.318 12.8107 120.318 13.093C120.296 13.397 120.209 14.5478 120.209 15.5466C120.209 15.9591 120.274 16.046 120.578 16.1763C121.403 16.5454 122.576 16.6539 123.683 16.6539Z" fill=""/>
<path d="M7.81673 45.6647C12.7456 45.6647 15.8289 42.3426 15.8289 38.1085C15.8289 33.8745 12.8325 31.2037 8.01215 31.2037C2.21474 31.2037 0 35.2858 0 38.4342C0 41.7129 2.25817 45.6647 7.81673 45.6647ZM8.5984 44.6659C4.99402 44.6659 2.82271 41.6695 2.82271 37.8697C2.82271 33.3099 5.31972 32.1808 7.4476 32.1808C10.5309 32.1808 12.9845 34.6996 12.9845 38.7816C12.9845 44.0362 9.94461 44.6659 8.5984 44.6659Z" fill=""/>
<path d="M22.3835 38.6079C22.3835 38.4776 22.4269 38.4559 22.5138 38.4559C22.8395 38.4559 25.0977 38.4776 25.5753 38.5211C26.1616 38.5645 26.4004 38.9336 26.4873 39.1942C26.5742 39.4113 26.6176 39.6284 26.6176 39.7587C26.6176 39.889 26.6827 40.0193 26.7913 40.0193C26.9867 40.0193 27.0084 39.7587 27.0084 39.6067C27.0084 39.4764 27.0301 38.6296 27.0736 38.2605C27.1387 37.6743 27.2255 37.1749 27.2255 37.0663C27.2255 36.9577 27.1821 36.8926 27.117 36.8926C27.0084 36.8926 26.965 36.9794 26.8564 37.088C26.6827 37.3268 26.4004 37.392 26.053 37.4137C25.7708 37.4354 25.5102 37.4354 25.1845 37.4354L22.5138 37.4571C22.4052 37.4571 22.3835 37.392 22.3835 37.2834V32.8105C22.3835 32.5934 22.4487 32.55 22.5572 32.55L25.7273 32.6151C26.4439 32.6368 26.813 32.9191 26.9433 33.1796C27.0736 33.4402 27.0518 33.7225 27.0518 33.8745C27.0518 34.0916 27.1604 34.1784 27.2907 34.1784C27.421 34.1784 27.4644 33.9613 27.4861 33.8093C27.5078 33.5922 27.5512 32.5065 27.573 32.3111C27.6381 31.8334 27.725 31.6163 27.725 31.486C27.725 31.3992 27.6598 31.3123 27.5947 31.3123C27.4861 31.3123 27.3993 31.3992 27.2907 31.4209C27.0953 31.4643 26.8564 31.486 26.509 31.5077C26.053 31.5294 21.819 31.5077 21.0807 31.5077C20.5379 31.5077 19.322 31.4643 18.3449 31.4643C18.0409 31.4643 17.8889 31.5077 17.8889 31.638C17.8889 31.7683 18.0409 31.8334 18.2146 31.8334C18.4969 31.8334 18.8226 31.8551 18.9746 31.8986C19.5825 32.0506 19.7562 32.2677 19.7997 32.8974C19.8214 33.4836 19.8214 34.0047 19.8214 36.8057V40.0627C19.8214 41.8432 19.8214 43.2111 19.7345 43.9928C19.6694 44.5356 19.5608 44.883 19.17 44.9699C18.9963 45.0133 18.7791 45.035 18.4969 45.035C18.2797 45.035 18.2146 45.1436 18.2146 45.2304C18.2146 45.3824 18.3449 45.4258 18.6054 45.4258C19.322 45.4258 20.5379 45.3607 21.0373 45.3607C21.5367 45.3607 22.8829 45.4258 24.0989 45.4258C24.3811 45.4258 24.5114 45.3607 24.5114 45.2304C24.5114 45.1436 24.4246 45.035 24.1857 45.035C23.9252 45.035 23.5126 45.0133 23.252 44.9699C22.6875 44.883 22.5572 44.5356 22.4921 43.9928C22.4052 43.2111 22.3835 41.9083 22.3835 40.1278V38.6079Z" fill=""/>
<path d="M39.9535 39.129C39.9535 41.1266 39.9535 42.842 39.8449 43.7539C39.7581 44.3836 39.6495 44.8613 39.2153 44.9481C39.0198 44.9916 38.7593 45.035 38.4336 45.035C38.173 45.035 38.0862 45.1001 38.0862 45.2087C38.0862 45.3607 38.2382 45.4258 38.5204 45.4258C38.9547 45.4258 39.5193 45.3824 40.0187 45.3824C40.5398 45.3607 41.0175 45.3607 41.2563 45.3607C41.7991 45.3607 42.5591 45.4258 43.3842 45.491C44.2093 45.5561 45.0995 45.6212 45.8812 45.6212C49.8981 45.6212 52.1563 44.0796 53.1551 43.0591C54.371 41.8215 55.5218 39.737 55.5218 37.0011C55.5218 34.4173 54.5013 32.6151 53.4157 31.486C51.0489 29.0107 47.4228 29.0107 44.7087 29.0107C43.4059 29.0107 42.038 29.0759 41.3649 29.0759C40.7569 29.0759 39.389 29.0107 38.2382 29.0107C37.9125 29.0107 37.7605 29.0541 37.7605 29.2061C37.7605 29.3581 37.8908 29.4016 38.1296 29.4016C38.4336 29.4016 38.8027 29.4233 38.9764 29.4667C39.693 29.6187 39.8667 29.9661 39.9101 30.7043C39.9535 31.3992 39.9535 32.0071 39.9535 35.3075V39.129ZM42.6677 34.9601C42.6677 33.2448 42.6677 31.3557 42.6894 30.6175C42.6894 30.3786 42.7545 30.2701 42.9499 30.1832C43.1236 30.0964 43.927 30.0312 44.3613 30.0312C46.0549 30.0312 48.5302 30.2918 50.5278 32.2025C51.4615 33.0928 52.6123 34.8733 52.6123 37.6308C52.6123 39.8673 52.178 41.8432 50.7884 43.0374C49.4856 44.1665 48.0091 44.6007 45.7943 44.6007C44.079 44.6007 43.2322 44.1448 42.9499 43.7322C42.7762 43.4934 42.7328 42.6248 42.7111 42.082C42.6894 41.6695 42.6677 39.9976 42.6677 37.696V34.9601Z" fill=""/>
<path d="M65.5869 40.7792C65.6737 40.7792 65.7389 40.8009 65.7823 40.9095L67.2588 44.6224C67.3456 44.8396 67.2154 45.0133 67.0851 45.035C66.8897 45.0567 66.8462 45.1218 66.8462 45.2304C66.8462 45.3607 67.0634 45.3607 67.4108 45.3824C69.0176 45.4258 70.4072 45.4258 71.0803 45.4258C71.7968 45.4258 71.9054 45.3824 71.9054 45.2304C71.9054 45.1001 71.8185 45.035 71.6448 45.035C71.4277 45.035 71.2106 45.0133 70.9283 44.9699C70.5809 44.9047 70.0381 44.6659 69.2998 42.994C68.0839 40.193 64.8921 32.6368 64.4361 31.6163C64.2407 31.2037 64.1538 31.03 63.8715 31.03C63.6761 31.03 63.5241 31.2472 63.307 31.7683L58.313 43.3848C57.9221 44.3185 57.5964 44.883 56.7279 45.0133C56.5542 45.0133 56.3371 45.035 56.1634 45.035C56.0114 45.035 55.9462 45.1218 55.9462 45.2304C55.9462 45.3824 56.0548 45.4258 56.2937 45.4258C57.2925 45.4258 58.313 45.3607 58.5084 45.3607C59.1164 45.3607 60.0066 45.4258 60.6363 45.4258C60.8317 45.4258 60.9403 45.3824 60.9403 45.2304C60.9403 45.1218 60.8968 45.035 60.658 45.035H60.3757C59.7895 45.035 59.6158 44.8396 59.6158 44.5139C59.6158 44.2967 59.7026 43.8408 59.898 43.3848L60.9186 40.9095C60.962 40.8009 60.9837 40.7792 61.0923 40.7792H65.5869ZM61.4831 39.7587C61.418 39.7587 61.3745 39.7153 61.418 39.6284L63.2636 34.9601C63.2853 34.895 63.307 34.7864 63.3721 34.7864C63.4156 34.7864 63.4373 34.895 63.459 34.9601L65.2612 39.6501C65.2829 39.7153 65.2612 39.7587 65.1743 39.7587H61.4831Z" fill=""/>
<path d="M74.4206 40.0627C74.4206 41.7563 74.4206 43.2111 74.3337 43.9928C74.2686 44.5356 74.16 44.883 73.7692 44.9699C73.5955 45.0133 73.3783 45.035 73.0961 45.035C72.8572 45.035 72.7921 45.1436 72.7921 45.2304C72.7921 45.3607 72.9223 45.4258 73.1612 45.4258C73.9212 45.4258 75.1371 45.3607 75.5062 45.3607C75.7885 45.3607 77.3735 45.4258 78.4809 45.4258C78.7198 45.4258 78.8718 45.3607 78.8718 45.2304C78.8718 45.1436 78.7849 45.035 78.6329 45.035C78.3941 45.035 77.9815 45.0133 77.6992 44.9699C77.113 44.883 77.0261 44.5356 76.961 43.9928C76.8741 43.2111 76.8524 41.778 76.8524 40.0627V39.8021C76.8524 39.6936 76.9176 39.6501 77.0044 39.6501L78.7198 39.6936C78.85 39.6936 78.9586 39.7153 79.0672 39.8238C79.306 40.1061 80.1094 41.3438 80.8694 42.3426C81.9333 43.7756 82.6498 44.6442 83.4749 45.0567C83.9743 45.3173 84.4954 45.4258 85.5594 45.4258H87.3833C87.6221 45.4258 87.7524 45.3824 87.7524 45.2304C87.7524 45.1436 87.6656 45.035 87.5136 45.035C87.3616 45.035 87.253 45.035 87.0576 44.9916C86.7536 44.9264 86.0805 44.8396 85.0166 43.7756C83.8658 42.6248 82.5196 40.9529 80.8259 38.8685C82.6933 37.3703 83.4749 36.1543 83.4749 34.7864C83.4749 33.5488 82.6715 32.6151 82.1287 32.246C81.1082 31.5729 79.7186 31.4643 78.5026 31.4643C77.9164 31.4643 76.1793 31.5077 75.5279 31.5077C75.1371 31.5077 73.9212 31.4643 72.9224 31.4643C72.6401 31.4643 72.4881 31.5077 72.4881 31.638C72.4881 31.7683 72.6184 31.8334 72.8138 31.8334C73.0961 31.8334 73.4218 31.8551 73.5737 31.8986C74.1817 32.0723 74.3554 32.2677 74.3988 32.8974C74.4206 33.4836 74.4206 34.0047 74.4206 36.8057V40.0627ZM76.8524 32.7454C76.8524 32.5934 76.8959 32.5282 77.0261 32.4848C77.2215 32.4414 77.6775 32.4197 78.1552 32.4197C79.2843 32.4197 81.0648 33.0928 81.0648 35.6984C81.0648 37.2183 80.4134 38.0217 79.8271 38.4342C79.5014 38.6731 79.2409 38.7382 78.4809 38.7382C78.0032 38.7382 77.4387 38.6948 77.0261 38.5645C76.8959 38.4993 76.8524 38.4342 76.8524 38.2388V32.7454Z" fill=""/>
<path d="M92.2372 36.8057C92.2372 34.0047 92.2372 33.4836 92.2589 32.8974C92.3023 32.246 92.4543 31.9854 92.9754 31.8986C93.2143 31.8551 93.3229 31.8334 93.5183 31.8334C93.6703 31.8334 93.7788 31.7683 93.7788 31.638C93.7788 31.5077 93.6486 31.4643 93.3663 31.4643C92.7366 31.4643 91.3687 31.5077 90.9127 31.5077C90.4567 31.5077 89.2408 31.4643 88.242 31.4643C87.9597 31.4643 87.8077 31.5077 87.8077 31.638C87.8077 31.7683 87.938 31.8334 88.1334 31.8334C88.4157 31.8334 88.7414 31.8551 88.8934 31.8986C89.5013 32.0723 89.6751 32.2677 89.7185 32.8974C89.7402 33.4836 89.7402 34.0047 89.7402 36.8057V40.0627C89.7402 41.7563 89.7402 43.2111 89.6533 43.9928C89.5882 44.5356 89.4796 44.883 89.0888 44.9699C88.9151 45.0133 88.698 45.035 88.4157 45.035C88.1768 45.035 88.1117 45.1436 88.1117 45.2304C88.1117 45.3607 88.242 45.4258 88.4808 45.4258C89.2408 45.4258 90.4567 45.3607 90.891 45.3607C91.3687 45.3607 92.7366 45.4258 93.8005 45.4258C94.0177 45.4258 94.1697 45.3607 94.1697 45.2304C94.1697 45.1436 94.0611 45.035 93.9091 45.035C93.6703 45.035 93.236 45.0133 92.9754 44.9699C92.4978 44.883 92.3241 44.5356 92.2806 44.0145C92.2372 43.2111 92.2372 41.7563 92.2372 40.0627V38.3908H92.324L92.5195 38.6513C92.932 39.2159 96.6015 43.4717 97.4266 44.1882C98.2517 44.9047 98.8814 45.2956 99.9019 45.3824C100.314 45.4258 100.662 45.4258 101.226 45.4258H102.898C103.246 45.4258 103.354 45.3607 103.354 45.2304C103.354 45.1218 103.246 45.035 103.094 45.035C102.877 45.035 102.486 45.035 101.921 44.7962C100.901 44.3836 100.162 43.5802 99.3157 42.8203C98.5774 42.1254 94.8211 38.2171 94.148 37.3486C94.7342 36.6754 97.5786 33.983 98.1866 33.4185C98.99 32.6585 99.598 32.2677 100.206 32.0506C100.553 31.9203 101.031 31.8334 101.313 31.8334C101.487 31.8334 101.596 31.7683 101.596 31.638C101.596 31.5077 101.465 31.4643 101.27 31.4643C100.684 31.4643 99.6197 31.5077 99.0334 31.5077C98.5123 31.5077 97.4701 31.4643 97.0575 31.4643C96.8621 31.4643 96.7535 31.5077 96.7535 31.638C96.7535 31.7466 96.8404 31.79 97.0141 31.8334C97.1878 31.8769 97.2746 32.0071 97.2746 32.2025C97.2746 32.5282 96.8621 32.9625 96.3193 33.5705C95.7547 34.2002 92.9754 36.936 92.324 37.6308H92.2372V36.8057Z" fill=""/>
<path d="M106.016 35.3727H106.081C106.45 35.6984 108.469 37.9348 110.554 39.9324C112.551 41.8649 114.94 44.1448 116.134 45.2521C116.329 45.4475 116.59 45.643 116.916 45.643C117.068 45.643 117.22 45.4693 117.22 45.0567L117.437 33.4185C117.459 32.3763 117.611 32.0506 118.132 31.8986C118.37 31.8334 118.522 31.8334 118.718 31.8334C118.935 31.8334 119.044 31.7466 119.044 31.638C119.044 31.486 118.87 31.4643 118.609 31.4643C117.676 31.4643 116.959 31.5077 116.742 31.5077C116.329 31.5077 115.309 31.4643 114.31 31.4643C114.028 31.4643 113.832 31.486 113.832 31.638C113.832 31.7466 113.898 31.8334 114.136 31.8334C114.397 31.8334 114.853 31.8334 115.135 31.942C115.591 32.1157 115.765 32.4414 115.787 33.5705L115.982 41.778H115.895C115.613 41.5175 113.072 38.9119 111.77 37.6308C108.99 34.9167 106.124 31.9854 105.885 31.7466C105.56 31.4209 105.299 31.1386 105.06 31.1386C104.865 31.1386 104.735 31.3992 104.735 31.7683L104.561 42.7117C104.539 44.3185 104.474 44.8179 103.975 44.9481C103.714 45.0133 103.367 45.035 103.106 45.035C102.932 45.035 102.802 45.1218 102.802 45.2304C102.802 45.4041 102.976 45.4258 103.236 45.4258C104.214 45.4258 105.125 45.3607 105.299 45.3607C105.647 45.3607 106.537 45.4258 107.774 45.4258C108.035 45.4258 108.209 45.3824 108.209 45.2304C108.209 45.1218 108.1 45.035 107.883 45.035C107.579 45.035 107.21 45.0133 106.884 44.9047C106.515 44.7744 106.276 44.3402 106.233 42.9071L106.016 35.3727Z" fill=""/>
<path d="M123.73 40.0627C123.73 41.7563 123.73 43.2111 123.643 43.9928C123.578 44.5356 123.469 44.883 123.078 44.9699C122.905 45.0133 122.687 45.035 122.405 45.035C122.166 45.035 122.101 45.1436 122.101 45.2304C122.101 45.3607 122.232 45.4258 122.47 45.4258C122.861 45.4258 123.339 45.4041 123.795 45.3824C124.251 45.3824 124.663 45.3607 124.881 45.3607C125.445 45.3607 126.162 45.3824 127.095 45.4041C128.029 45.4475 129.18 45.4693 130.613 45.4693C131.329 45.4693 131.503 45.4693 131.633 44.9916C131.742 44.6224 131.894 43.3631 131.894 42.9505C131.894 42.7551 131.872 42.5163 131.72 42.5163C131.59 42.5163 131.546 42.6031 131.503 42.7985C131.373 43.5585 131.156 43.9493 130.678 44.1665C130.179 44.3836 129.375 44.4053 128.876 44.4053C126.922 44.4053 126.335 44.123 126.292 42.8637C126.27 42.3209 126.292 40.7575 126.292 40.1278V38.6513C126.292 38.5428 126.314 38.4559 126.4 38.4559C126.878 38.4559 129.049 38.4993 129.397 38.5428C130.113 38.6079 130.352 38.8902 130.461 39.2593C130.504 39.4982 130.504 39.737 130.526 39.9324C130.526 40.0193 130.569 40.0844 130.7 40.0844C130.873 40.0844 130.895 39.8238 130.895 39.6719C130.895 39.5416 130.938 38.8033 130.982 38.4342C131.09 37.5005 131.134 37.1966 131.134 37.088C131.134 36.9794 131.069 36.8926 130.982 36.8926C130.895 36.8926 130.83 37.0011 130.678 37.1314C130.504 37.3268 130.222 37.3703 129.766 37.4137C129.332 37.4571 126.856 37.4571 126.422 37.4571C126.314 37.4571 126.292 37.3703 126.292 37.2617V32.702C126.292 32.5934 126.335 32.5282 126.422 32.5282C126.813 32.5282 129.093 32.5717 129.419 32.6151C130.374 32.702 130.526 32.9625 130.678 33.2882C130.786 33.5053 130.808 33.831 130.808 33.9613C130.808 34.1133 130.83 34.2002 130.96 34.2002C131.112 34.2002 131.156 33.983 131.177 33.8962C131.221 33.679 131.264 32.8757 131.286 32.6802C131.329 31.8334 131.438 31.6163 131.438 31.486C131.438 31.3992 131.416 31.3123 131.308 31.3123C131.221 31.3123 131.112 31.3775 131.004 31.3992C130.852 31.4209 130.548 31.486 130.2 31.5077C129.831 31.5294 125.597 31.5077 124.989 31.5077C124.446 31.5077 123.23 31.4643 122.232 31.4643C121.949 31.4643 121.797 31.5077 121.797 31.638C121.797 31.7683 121.928 31.8334 122.123 31.8334C122.405 31.8334 122.731 31.8551 122.883 31.8986C123.491 32.0723 123.665 32.2677 123.708 32.8974C123.73 33.4836 123.73 34.0047 123.73 36.8057V40.0627Z" fill=""/>
<path d="M138.737 45.6647C139.758 45.6647 141.017 45.5561 141.929 44.9047C143.319 43.9276 143.84 42.8203 143.84 41.4523C143.84 39.7804 143.058 38.3691 140.539 36.9794L139.758 36.5452C138.042 35.5898 137.738 34.9384 137.738 34.1133C137.738 32.8539 138.976 32.1374 140.344 32.1374C141.582 32.1374 142.19 32.6585 142.472 33.0059C142.884 33.4836 142.971 34.0482 142.971 34.2219C142.971 34.439 143.036 34.5476 143.167 34.5476C143.319 34.5476 143.406 34.3521 143.406 33.9613C143.406 32.5065 143.471 31.9854 143.471 31.7466C143.471 31.6163 143.384 31.5512 143.21 31.5077C142.711 31.3775 141.734 31.2037 140.496 31.2037C137.847 31.2037 135.676 32.6585 135.676 34.9167C135.676 36.5452 136.414 37.7828 138.672 39.1073L139.779 39.7587C141.473 40.7575 141.669 41.5609 141.669 42.3643C141.669 43.6671 140.67 44.7093 139.019 44.7093C137.825 44.7093 136.392 44.2533 135.98 42.8854C135.871 42.5597 135.806 42.1689 135.806 41.93C135.806 41.7997 135.784 41.626 135.611 41.626C135.459 41.626 135.372 41.8215 135.372 42.1037C135.35 42.4077 135.263 43.5585 135.263 44.5573C135.263 44.9699 135.328 45.0567 135.632 45.187C136.457 45.5561 137.63 45.6647 138.737 45.6647Z" fill=""/>
<path d="M150.897 45.6647C151.918 45.6647 153.177 45.5561 154.089 44.9047C155.479 43.9276 156 42.8203 156 41.4523C156 39.7804 155.218 38.3691 152.7 36.9794L151.918 36.5452C150.203 35.5898 149.899 34.9384 149.899 34.1133C149.899 32.8539 151.136 32.1374 152.504 32.1374C153.742 32.1374 154.35 32.6585 154.632 33.0059C155.045 33.4836 155.131 34.0482 155.131 34.2219C155.131 34.439 155.197 34.5476 155.327 34.5476C155.479 34.5476 155.566 34.3521 155.566 33.9613C155.566 32.5065 155.631 31.9854 155.631 31.7466C155.631 31.6163 155.544 31.5512 155.37 31.5077C154.871 31.3775 153.894 31.2037 152.656 31.2037C150.007 31.2037 147.836 32.6585 147.836 34.9167C147.836 36.5452 148.574 37.7828 150.832 39.1073L151.94 39.7587C153.633 40.7575 153.829 41.5609 153.829 42.3643C153.829 43.6671 152.83 44.7093 151.18 44.7093C149.985 44.7093 148.552 44.2533 148.14 42.8854C148.031 42.5597 147.966 42.1689 147.966 41.93C147.966 41.7997 147.944 41.626 147.771 41.626C147.619 41.626 147.532 41.8215 147.532 42.1037C147.51 42.4077 147.423 43.5585 147.423 44.5573C147.423 44.9699 147.488 45.0567 147.792 45.187C148.618 45.5561 149.79 45.6647 150.897 45.6647Z" fill=""/>
</svg>
