<svg width="158" height="35" viewBox="0 0 158 35" fill="none" xmlns="http://www.w3.org/2000/svg">
<path d="M23.7549 0.720043C23.8385 0.720043 23.9222 0.738044 24.0058 0.774046C24.1015 0.810049 24.1791 0.870052 24.2389 0.954057L29.1866 8.40651L28.7026 8.38851L33.6683 0.954057C33.7997 0.774046 33.9611 0.696042 34.1523 0.720043C34.2957 0.720043 34.4152 0.774046 34.5108 0.882053C34.6184 0.978059 34.6722 1.10407 34.6722 1.26008V12.7808C34.6722 12.9248 34.6184 13.0508 34.5108 13.1588C34.4033 13.2668 34.2718 13.3208 34.1165 13.3208C33.9491 13.3208 33.8117 13.2668 33.7041 13.1588C33.5966 13.0508 33.5428 12.9248 33.5428 12.7808V2.35814L33.8655 2.39414L29.33 9.28856C29.2942 9.36056 29.2404 9.42057 29.1687 9.46857C29.097 9.50457 29.0133 9.51657 28.9177 9.50457C28.8341 9.51657 28.7504 9.50457 28.6668 9.46857C28.5951 9.42057 28.5353 9.36056 28.4875 9.28856L23.9341 2.32214L24.2747 2.08813V12.7808C24.2747 12.9248 24.221 13.0508 24.1134 13.1588C24.0178 13.2668 23.8923 13.3208 23.7369 13.3208C23.5816 13.3208 23.4561 13.2668 23.3605 13.1588C23.2649 13.0508 23.2171 12.9248 23.2171 12.7808V1.26008C23.2171 1.11607 23.2649 0.990059 23.3605 0.882053C23.468 0.774046 23.5995 0.720043 23.7549 0.720043Z" fill=""/>
<path d="M53.3544 4.12225C53.5097 4.12225 53.6352 4.17625 53.7308 4.28426C53.8384 4.39226 53.8922 4.52427 53.8922 4.68028V12.7808C53.8922 12.9248 53.8384 13.0508 53.7308 13.1588C53.6233 13.2668 53.4978 13.3208 53.3544 13.3208C53.199 13.3208 53.0675 13.2668 52.96 13.1588C52.8644 13.0508 52.8166 12.9248 52.8166 12.7808V10.6386L53.1213 10.4946C53.1213 10.8307 53.0257 11.1727 52.8345 11.5207C52.6552 11.8687 52.4043 12.1927 52.0816 12.4928C51.7589 12.7928 51.3765 13.0388 50.9343 13.2308C50.504 13.4108 50.0379 13.5008 49.536 13.5008C48.7233 13.5008 47.9943 13.2908 47.3489 12.8708C46.7155 12.4508 46.2136 11.8747 45.8431 11.1427C45.4846 10.4106 45.3053 9.58858 45.3053 8.67652C45.3053 7.74047 45.4906 6.91842 45.861 6.21037C46.2315 5.49033 46.7335 4.9263 47.3669 4.51827C48.0003 4.11025 48.7173 3.90624 49.5181 3.90624C50.032 3.90624 50.51 3.99624 50.9522 4.17625C51.4063 4.35626 51.8007 4.60228 52.1354 4.9143C52.47 5.22632 52.7269 5.58634 52.9062 5.99436C53.0974 6.39039 53.193 6.80441 53.193 7.23644L52.8166 6.96642V4.68028C52.8166 4.52427 52.8644 4.39226 52.96 4.28426C53.0675 4.17625 53.199 4.12225 53.3544 4.12225ZM49.6256 12.4928C50.259 12.4928 50.8207 12.3307 51.3107 12.0067C51.8007 11.6707 52.1832 11.2147 52.458 10.6386C52.7449 10.0506 52.8883 9.39657 52.8883 8.67652C52.8883 7.96848 52.7449 7.33244 52.458 6.76841C52.1832 6.20437 51.8007 5.75435 51.3107 5.41833C50.8207 5.08231 50.259 4.9143 49.6256 4.9143C49.0042 4.9143 48.4425 5.07631 47.9405 5.40033C47.4505 5.72434 47.0621 6.16837 46.7753 6.73241C46.5004 7.29644 46.363 7.94448 46.363 8.67652C46.363 9.39657 46.5004 10.0506 46.7753 10.6386C47.0621 11.2147 47.4505 11.6707 47.9405 12.0067C48.4305 12.3307 48.9922 12.4928 49.6256 12.4928Z" fill=""/>
<path d="M68.8151 3.90624C69.3887 3.90624 69.9146 3.97224 70.3926 4.10425C70.8707 4.22425 71.2531 4.39226 71.5399 4.60828C71.8387 4.82429 71.9881 5.0583 71.9881 5.31032C71.9881 5.43033 71.9463 5.55033 71.8626 5.67034C71.7789 5.77835 71.6654 5.83235 71.522 5.83235C71.3786 5.83235 71.2591 5.79635 71.1635 5.72434C71.0798 5.65234 70.9902 5.56834 70.8946 5.47233C70.8109 5.37632 70.6854 5.28632 70.5181 5.20231C70.3627 5.13031 70.1416 5.06431 69.8548 5.0043C69.568 4.9443 69.2393 4.9143 68.8689 4.9143C68.1996 4.9143 67.5961 5.08231 67.0583 5.41833C66.5205 5.75435 66.0962 6.21037 65.7855 6.78641C65.4747 7.35044 65.3194 7.98648 65.3194 8.69452C65.3194 9.41457 65.4688 10.0626 65.7676 10.6386C66.0663 11.2147 66.4786 11.6707 67.0045 12.0067C67.5303 12.3307 68.1458 12.4928 68.8509 12.4928C69.329 12.4928 69.6995 12.4508 69.9624 12.3667C70.2253 12.2827 70.4524 12.1867 70.6436 12.0787C70.8707 11.9467 71.032 11.8207 71.1276 11.7007C71.2352 11.5687 71.3726 11.5027 71.5399 11.5027C71.6953 11.5027 71.8088 11.5507 71.8805 11.6467C71.9642 11.7307 72.006 11.8447 72.006 11.9887C72.006 12.1807 71.8626 12.3967 71.5758 12.6368C71.3009 12.8648 70.9185 13.0688 70.4285 13.2488C69.9385 13.4168 69.3768 13.5008 68.7434 13.5008C67.847 13.5008 67.0583 13.2908 66.3771 12.8708C65.7078 12.4508 65.182 11.8807 64.7995 11.1607C64.429 10.4286 64.2438 9.60658 64.2438 8.69452C64.2438 7.81847 64.435 7.02042 64.8174 6.30038C65.1999 5.58034 65.7317 5.0043 66.4129 4.57228C67.1061 4.12825 67.9068 3.90624 68.8151 3.90624Z" fill=""/>
<path d="M86.268 13.5008C85.3478 13.5008 84.5351 13.3028 83.83 12.9068C83.1249 12.5108 82.5752 11.9587 82.1808 11.2507C81.7864 10.5426 81.5892 9.71459 81.5892 8.76653C81.5892 7.74647 81.7864 6.87641 82.1808 6.15637C82.5871 5.43633 83.107 4.88429 83.7404 4.50027C84.3857 4.10425 85.067 3.90624 85.784 3.90624C86.3099 3.90624 86.8178 4.00224 87.3078 4.19425C87.8097 4.37426 88.2519 4.65028 88.6343 5.0223C89.0287 5.38232 89.3395 5.82635 89.5665 6.35438C89.8056 6.88241 89.937 7.49445 89.9609 8.19049C89.949 8.3345 89.8892 8.46051 89.7816 8.56852C89.6741 8.66452 89.5486 8.71253 89.4052 8.71253H82.2166L82.0015 7.74047H89.0646L88.8315 7.95648V7.59646C88.7837 7.03242 88.6045 6.55239 88.2937 6.15637C87.983 5.76035 87.6066 5.46033 87.1644 5.25632C86.7222 5.0523 86.2621 4.9503 85.784 4.9503C85.4255 4.9503 85.055 5.0223 84.6726 5.16631C84.3021 5.31032 83.9615 5.53833 83.6508 5.85035C83.352 6.15037 83.107 6.54039 82.9158 7.02042C82.7245 7.48845 82.6289 8.04649 82.6289 8.69452C82.6289 9.40257 82.7723 10.0446 83.0592 10.6206C83.346 11.1967 83.7583 11.6527 84.2961 11.9887C84.8459 12.3247 85.4972 12.4928 86.2501 12.4928C86.6684 12.4928 87.0449 12.4327 87.3795 12.3127C87.7141 12.1927 88.0069 12.0367 88.2579 11.8447C88.5089 11.6407 88.718 11.4307 88.8853 11.2147C89.0168 11.1067 89.1482 11.0527 89.2797 11.0527C89.3992 11.0527 89.5008 11.1007 89.5845 11.1967C89.6801 11.2927 89.7279 11.4007 89.7279 11.5207C89.7279 11.6647 89.6681 11.7907 89.5486 11.8987C89.1901 12.3307 88.724 12.7088 88.1503 13.0328C87.5767 13.3448 86.9492 13.5008 86.268 13.5008Z" fill=""/>
<path d="M107.841 0C107.997 0 108.122 0.0540033 108.218 0.16201C108.325 0.258015 108.379 0.384022 108.379 0.540032V12.7808C108.379 12.9248 108.325 13.0508 108.218 13.1588C108.11 13.2668 107.985 13.3208 107.841 13.3208C107.686 13.3208 107.555 13.2668 107.447 13.1588C107.351 13.0508 107.304 12.9248 107.304 12.7808V10.6386L107.608 10.3866C107.608 10.7226 107.519 11.0767 107.339 11.4487C107.16 11.8087 106.903 12.1447 106.569 12.4568C106.246 12.7688 105.864 13.0208 105.421 13.2128C104.991 13.4048 104.525 13.5008 104.023 13.5008C103.222 13.5008 102.499 13.2908 101.854 12.8708C101.221 12.4508 100.719 11.8807 100.348 11.1607C99.9776 10.4406 99.7924 9.61858 99.7924 8.69452C99.7924 7.78247 99.9776 6.96642 100.348 6.24638C100.719 5.51433 101.221 4.9443 101.854 4.53627C102.487 4.11625 103.204 3.90624 104.005 3.90624C104.495 3.90624 104.961 3.99624 105.403 4.17625C105.846 4.35626 106.234 4.60228 106.569 4.9143C106.915 5.22632 107.184 5.58634 107.375 5.99436C107.579 6.39039 107.68 6.80441 107.68 7.23644L107.304 6.96642V0.540032C107.304 0.396023 107.351 0.270016 107.447 0.16201C107.555 0.0540033 107.686 0 107.841 0ZM104.113 12.4928C104.758 12.4928 105.32 12.3307 105.798 12.0067C106.288 11.6707 106.67 11.2207 106.945 10.6566C107.232 10.0806 107.375 9.42657 107.375 8.69452C107.375 7.97448 107.232 7.33244 106.945 6.76841C106.67 6.19237 106.288 5.74235 105.798 5.41833C105.308 5.08231 104.746 4.9143 104.113 4.9143C103.491 4.9143 102.93 5.08231 102.428 5.41833C101.938 5.74235 101.549 6.19237 101.262 6.76841C100.987 7.33244 100.85 7.97448 100.85 8.69452C100.85 9.41457 100.987 10.0626 101.262 10.6386C101.549 11.2147 101.938 11.6707 102.428 12.0067C102.93 12.3307 103.491 12.4928 104.113 12.4928Z" fill=""/>
<path d="M127.802 8.71253C127.802 9.62458 127.605 10.4466 127.21 11.1787C126.816 11.8987 126.278 12.4688 125.597 12.8888C124.916 13.2968 124.139 13.5008 123.266 13.5008C122.418 13.5008 121.647 13.2968 120.954 12.8888C120.273 12.4688 119.729 11.8987 119.322 11.1787C118.928 10.4466 118.731 9.62458 118.731 8.71253C118.731 7.78847 118.928 6.96642 119.322 6.24638C119.729 5.52633 120.273 4.9563 120.954 4.53627C121.647 4.11625 122.418 3.90624 123.266 3.90624C124.139 3.90624 124.916 4.11625 125.597 4.53627C126.278 4.9563 126.816 5.52633 127.21 6.24638C127.605 6.96642 127.802 7.78847 127.802 8.71253ZM126.726 8.71253C126.726 7.98048 126.577 7.33244 126.278 6.76841C125.979 6.19237 125.567 5.74235 125.041 5.41833C124.527 5.08231 123.936 4.9143 123.266 4.9143C122.621 4.9143 122.035 5.08231 121.509 5.41833C120.984 5.74235 120.565 6.19237 120.255 6.76841C119.956 7.33244 119.806 7.98048 119.806 8.71253C119.806 9.44457 119.956 10.0926 120.255 10.6566C120.565 11.2207 120.984 11.6707 121.509 12.0067C122.035 12.3307 122.621 12.4928 123.266 12.4928C123.936 12.4928 124.527 12.3307 125.041 12.0067C125.567 11.6707 125.979 11.2207 126.278 10.6566C126.577 10.0926 126.726 9.44457 126.726 8.71253Z" fill=""/>
<path d="M5.36603 20.1851L1.00987 31.0578C0.962061 31.1778 0.89633 31.2678 0.812673 31.3278C0.729015 31.3878 0.633407 31.4178 0.525847 31.4178C0.358532 31.4178 0.233046 31.3758 0.149388 31.2918C0.0657309 31.1958 0.0179266 31.0818 0.00597554 30.9498C-0.00597554 30.8898 0 30.8177 0.0239021 30.7337L4.75653 19.105C4.81628 18.973 4.88799 18.883 4.97165 18.835C5.06725 18.775 5.17481 18.745 5.29432 18.745C5.41383 18.745 5.51542 18.781 5.59908 18.853C5.69468 18.913 5.76639 18.997 5.8142 19.105L10.5289 30.6797C10.5528 30.7517 10.5647 30.8237 10.5647 30.8958C10.5647 31.0638 10.511 31.1958 10.4034 31.2918C10.2958 31.3758 10.1704 31.4178 10.0269 31.4178C9.90744 31.4178 9.79988 31.3878 9.70427 31.3278C9.62061 31.2558 9.55488 31.1658 9.50708 31.0578L5.04335 20.1131L5.36603 20.1851ZM2.04961 27.7636L2.49777 26.7015H8.05502L8.27014 27.7636H2.04961Z" fill=""/>
<path d="M28.0873 18.079C28.2427 18.079 28.3681 18.133 28.4638 18.241C28.5713 18.337 28.6251 18.463 28.6251 18.619V30.8598C28.6251 31.0038 28.5713 31.1298 28.4638 31.2378C28.3562 31.3458 28.2307 31.3998 28.0873 31.3998C27.9319 31.3998 27.8005 31.3458 27.6929 31.2378C27.5973 31.1298 27.5495 31.0038 27.5495 30.8598V28.7176L27.8543 28.4656C27.8543 28.8016 27.7646 29.1556 27.5854 29.5277C27.4061 29.8877 27.1491 30.2237 26.8145 30.5357C26.4918 30.8478 26.1094 31.0998 25.6672 31.2918C25.237 31.4838 24.7709 31.5798 24.2689 31.5798C23.4682 31.5798 22.7452 31.3698 22.0998 30.9498C21.4664 30.5297 20.9645 29.9597 20.594 29.2397C20.2235 28.5196 20.0383 27.6976 20.0383 26.7735C20.0383 25.8614 20.2235 25.0454 20.594 24.3254C20.9645 23.5933 21.4664 23.0233 22.0998 22.6153C22.7332 22.1952 23.4503 21.9852 24.251 21.9852C24.741 21.9852 25.2071 22.0752 25.6493 22.2552C26.0915 22.4352 26.4799 22.6813 26.8145 22.9933C27.1611 23.3053 27.43 23.6653 27.6212 24.0733C27.8244 24.4694 27.926 24.8834 27.926 25.3154L27.5495 25.0454V18.619C27.5495 18.475 27.5973 18.349 27.6929 18.241C27.8005 18.133 27.9319 18.079 28.0873 18.079ZM24.3586 30.5717C25.0039 30.5717 25.5656 30.4097 26.0437 30.0857C26.5337 29.7497 26.9161 29.2997 27.191 28.7356C27.4778 28.1596 27.6212 27.5055 27.6212 26.7735C27.6212 26.0535 27.4778 25.4114 27.191 24.8474C26.9161 24.2714 26.5337 23.8213 26.0437 23.4973C25.5537 23.1613 24.992 22.9933 24.3586 22.9933C23.7371 22.9933 23.1754 23.1613 22.6735 23.4973C22.1835 23.8213 21.7951 24.2714 21.5082 24.8474C21.2334 25.4114 21.0959 26.0535 21.0959 26.7735C21.0959 27.4935 21.2334 28.1416 21.5082 28.7176C21.7951 29.2937 22.1835 29.7497 22.6735 30.0857C23.1754 30.4097 23.7371 30.5717 24.3586 30.5717Z" fill=""/>
<path d="M39.2994 22.0032C39.395 22.0032 39.4906 22.0332 39.5862 22.0932C39.6818 22.1532 39.7536 22.2432 39.8014 22.3632L42.9385 29.8517L42.7055 29.9957L45.9143 22.3632C46.0099 22.1232 46.1832 22.0092 46.4342 22.0212C46.5537 22.0212 46.6672 22.0632 46.7748 22.1472C46.8824 22.2192 46.9361 22.3272 46.9361 22.4712C46.9361 22.5432 46.9242 22.6033 46.9003 22.6513C46.8883 22.6873 46.8764 22.7293 46.8644 22.7773L43.3508 31.0578C43.2552 31.2738 43.0939 31.3878 42.8668 31.3998C42.7592 31.4118 42.6517 31.3878 42.5441 31.3278C42.4485 31.2558 42.3768 31.1658 42.329 31.0578L38.7975 22.7773C38.7855 22.7533 38.7736 22.7173 38.7616 22.6693C38.7497 22.6213 38.7437 22.5732 38.7437 22.5252C38.7437 22.3932 38.7915 22.2732 38.8871 22.1652C38.9827 22.0572 39.1201 22.0032 39.2994 22.0032Z" fill=""/>
<path d="M65.5155 26.7915C65.5155 27.7036 65.3183 28.5256 64.9239 29.2577C64.5296 29.9777 63.9918 30.5477 63.3105 30.9678C62.6293 31.3758 61.8525 31.5798 60.9801 31.5798C60.1316 31.5798 59.3607 31.3758 58.6676 30.9678C57.9864 30.5477 57.4426 29.9777 57.0362 29.2577C56.6419 28.5256 56.4447 27.7036 56.4447 26.7915C56.4447 25.8674 56.6419 25.0454 57.0362 24.3254C57.4426 23.6053 57.9864 23.0353 58.6676 22.6153C59.3607 22.1952 60.1316 21.9852 60.9801 21.9852C61.8525 21.9852 62.6293 22.1952 63.3105 22.6153C63.9918 23.0353 64.5296 23.6053 64.9239 24.3254C65.3183 25.0454 65.5155 25.8674 65.5155 26.7915ZM64.4399 26.7915C64.4399 26.0595 64.2905 25.4114 63.9918 24.8474C63.693 24.2714 63.2807 23.8213 62.7548 23.4973C62.2409 23.1613 61.6494 22.9933 60.9801 22.9933C60.3347 22.9933 59.7491 23.1613 59.2233 23.4973C58.6974 23.8213 58.2792 24.2714 57.9684 24.8474C57.6697 25.4114 57.5203 26.0595 57.5203 26.7915C57.5203 27.5235 57.6697 28.1716 57.9684 28.7356C58.2792 29.2997 58.6974 29.7497 59.2233 30.0857C59.7491 30.4097 60.3347 30.5717 60.9801 30.5717C61.6494 30.5717 62.2409 30.4097 62.7548 30.0857C63.2807 29.7497 63.693 29.2997 63.9918 28.7356C64.2905 28.1716 64.4399 27.5235 64.4399 26.7915Z" fill=""/>
<path d="M79.6868 21.9852C80.2246 21.9852 80.7206 22.0812 81.1747 22.2732C81.6288 22.4532 82.0232 22.6933 82.3579 22.9933C82.7044 23.2813 82.9733 23.5933 83.1646 23.9293C83.3558 24.2534 83.4514 24.5654 83.4514 24.8654L83.1466 24.4334V22.7593C83.1466 22.6033 83.1944 22.4712 83.29 22.3632C83.3976 22.2552 83.5291 22.2012 83.6844 22.2012C83.8517 22.2012 83.9832 22.2552 84.0788 22.3632C84.1744 22.4712 84.2222 22.6033 84.2222 22.7593V30.5537C84.2222 31.5138 84.025 32.3238 83.6306 32.9839C83.2363 33.6439 82.6985 34.1419 82.0172 34.478C81.348 34.826 80.5831 35 79.7226 35C79.3044 35 78.8622 34.946 78.3961 34.838C77.9419 34.73 77.5475 34.592 77.2129 34.424C76.8902 34.256 76.711 34.0819 76.6751 33.9019C76.5795 33.7939 76.5317 33.6859 76.5317 33.5779C76.5437 33.4819 76.5974 33.3979 76.693 33.3259C76.8126 33.2419 76.938 33.2299 77.0695 33.2899C77.201 33.3619 77.3982 33.4519 77.6611 33.5599C77.7806 33.5959 77.9419 33.6499 78.1451 33.7219C78.3483 33.7939 78.5873 33.8539 78.8622 33.9019C79.149 33.9619 79.4478 33.9919 79.7585 33.9919C80.8341 33.9919 81.6647 33.6799 82.2503 33.0559C82.8479 32.4438 83.1466 31.6338 83.1466 30.6257V28.8976L83.3438 28.9516C83.2363 29.3837 83.057 29.7617 82.806 30.0857C82.567 30.4097 82.2802 30.6857 81.9455 30.9138C81.6109 31.1298 81.2464 31.2918 80.852 31.3998C80.4696 31.5198 80.0872 31.5798 79.7047 31.5798C78.8801 31.5798 78.1391 31.3698 77.4818 30.9498C76.8245 30.5297 76.2987 29.9597 75.9043 29.2397C75.5218 28.5196 75.3306 27.6976 75.3306 26.7735C75.3306 25.8614 75.5218 25.0454 75.9043 24.3254C76.2987 23.5933 76.8185 23.0233 77.4639 22.6153C78.1212 22.1952 78.8622 21.9852 79.6868 21.9852ZM79.8123 22.9933C79.155 22.9933 78.5634 23.1613 78.0375 23.4973C77.5236 23.8213 77.1173 24.2714 76.8185 24.8474C76.5317 25.4114 76.3883 26.0535 76.3883 26.7735C76.3883 27.4935 76.5317 28.1416 76.8185 28.7176C77.1173 29.2937 77.5236 29.7497 78.0375 30.0857C78.5634 30.4097 79.155 30.5717 79.8123 30.5717C80.4696 30.5717 81.0552 30.4097 81.5691 30.0857C82.083 29.7617 82.4893 29.3177 82.7881 28.7536C83.0869 28.1776 83.2363 27.5175 83.2363 26.7735C83.2363 26.0295 83.0869 25.3754 82.7881 24.8114C82.4893 24.2353 82.083 23.7913 81.5691 23.4793C81.0552 23.1553 80.4696 22.9933 79.8123 22.9933Z" fill=""/>
<path d="M102.546 22.2012C102.701 22.2012 102.827 22.2552 102.922 22.3632C103.03 22.4712 103.084 22.6033 103.084 22.7593V30.8598C103.084 31.0038 103.03 31.1298 102.922 31.2378C102.815 31.3458 102.689 31.3998 102.546 31.3998C102.39 31.3998 102.259 31.3458 102.151 31.2378C102.056 31.1298 102.008 31.0038 102.008 30.8598V28.7176L102.313 28.5736C102.313 28.9096 102.217 29.2517 102.026 29.5997C101.847 29.9477 101.596 30.2717 101.273 30.5717C100.95 30.8717 100.568 31.1178 100.126 31.3098C99.6954 31.4898 99.2293 31.5798 98.7274 31.5798C97.9147 31.5798 97.1857 31.3698 96.5403 30.9498C95.9069 30.5297 95.405 29.9537 95.0345 29.2217C94.6759 28.4896 94.4967 27.6676 94.4967 26.7555C94.4967 25.8194 94.6819 24.9974 95.0524 24.2894C95.4229 23.5693 95.9248 23.0053 96.5582 22.5973C97.1916 22.1892 97.9087 21.9852 98.7094 21.9852C99.2233 21.9852 99.7014 22.0752 100.144 22.2552C100.598 22.4352 100.992 22.6813 101.327 22.9933C101.661 23.3053 101.918 23.6653 102.098 24.0733C102.289 24.4694 102.384 24.8834 102.384 25.3154L102.008 25.0454V22.7593C102.008 22.6033 102.056 22.4712 102.151 22.3632C102.259 22.2552 102.39 22.2012 102.546 22.2012ZM98.817 30.5717C99.4504 30.5717 100.012 30.4097 100.502 30.0857C100.992 29.7497 101.375 29.2937 101.649 28.7176C101.936 28.1296 102.08 27.4755 102.08 26.7555C102.08 26.0475 101.936 25.4114 101.649 24.8474C101.375 24.2834 100.992 23.8333 100.502 23.4973C100.012 23.1613 99.4504 22.9933 98.817 22.9933C98.1955 22.9933 97.6338 23.1553 97.1319 23.4793C96.6419 23.8033 96.2535 24.2474 95.9667 24.8114C95.6918 25.3754 95.5543 26.0235 95.5543 26.7555C95.5543 27.4755 95.6918 28.1296 95.9667 28.7176C96.2535 29.2937 96.6419 29.7497 97.1319 30.0857C97.6219 30.4097 98.1836 30.5717 98.817 30.5717Z" fill=""/>
<path d="M121.484 18.079C121.64 18.079 121.765 18.133 121.861 18.241C121.968 18.337 122.022 18.463 122.022 18.619V30.8598C122.022 31.0038 121.968 31.1298 121.861 31.2378C121.753 31.3458 121.628 31.3998 121.484 31.3998C121.329 31.3998 121.197 31.3458 121.09 31.2378C120.994 31.1298 120.946 31.0038 120.946 30.8598V28.7176L121.251 28.4656C121.251 28.8016 121.162 29.1556 120.982 29.5277C120.803 29.8877 120.546 30.2237 120.211 30.5357C119.889 30.8478 119.506 31.0998 119.064 31.2918C118.634 31.4838 118.168 31.5798 117.666 31.5798C116.865 31.5798 116.142 31.3698 115.497 30.9498C114.863 30.5297 114.361 29.9597 113.991 29.2397C113.62 28.5196 113.435 27.6976 113.435 26.7735C113.435 25.8614 113.62 25.0454 113.991 24.3254C114.361 23.5933 114.863 23.0233 115.497 22.6153C116.13 22.1952 116.847 21.9852 117.648 21.9852C118.138 21.9852 118.604 22.0752 119.046 22.2552C119.488 22.4352 119.877 22.6813 120.211 22.9933C120.558 23.3053 120.827 23.6653 121.018 24.0733C121.221 24.4694 121.323 24.8834 121.323 25.3154L120.946 25.0454V18.619C120.946 18.475 120.994 18.349 121.09 18.241C121.197 18.133 121.329 18.079 121.484 18.079ZM117.755 30.5717C118.401 30.5717 118.963 30.4097 119.441 30.0857C119.931 29.7497 120.313 29.2997 120.588 28.7356C120.875 28.1596 121.018 27.5055 121.018 26.7735C121.018 26.0535 120.875 25.4114 120.588 24.8474C120.313 24.2714 119.931 23.8213 119.441 23.4973C118.951 23.1613 118.389 22.9933 117.755 22.9933C117.134 22.9933 116.572 23.1613 116.07 23.4973C115.58 23.8213 115.192 24.2714 114.905 24.8474C114.63 25.4114 114.493 26.0535 114.493 26.7735C114.493 27.4935 114.63 28.1416 114.905 28.7176C115.192 29.2937 115.58 29.7497 116.07 30.0857C116.572 30.4097 117.134 30.5717 117.755 30.5717Z" fill=""/>
<path d="M141.444 26.7915C141.444 27.7036 141.247 28.5256 140.853 29.2577C140.459 29.9777 139.921 30.5477 139.24 30.9678C138.558 31.3758 137.781 31.5798 136.909 31.5798C136.061 31.5798 135.29 31.3758 134.597 30.9678C133.915 30.5477 133.372 29.9777 132.965 29.2577C132.571 28.5256 132.374 27.7036 132.374 26.7915C132.374 25.8674 132.571 25.0454 132.965 24.3254C133.372 23.6053 133.915 23.0353 134.597 22.6153C135.29 22.1952 136.061 21.9852 136.909 21.9852C137.781 21.9852 138.558 22.1952 139.24 22.6153C139.921 23.0353 140.459 23.6053 140.853 24.3254C141.247 25.0454 141.444 25.8674 141.444 26.7915ZM140.369 26.7915C140.369 26.0595 140.22 25.4114 139.921 24.8474C139.622 24.2714 139.21 23.8213 138.684 23.4973C138.17 23.1613 137.578 22.9933 136.909 22.9933C136.264 22.9933 135.678 23.1613 135.152 23.4973C134.626 23.8213 134.208 24.2714 133.897 24.8474C133.599 25.4114 133.449 26.0595 133.449 26.7915C133.449 27.5235 133.599 28.1716 133.897 28.7356C134.208 29.2997 134.626 29.7497 135.152 30.0857C135.678 30.4097 136.264 30.5717 136.909 30.5717C137.578 30.5717 138.17 30.4097 138.684 30.0857C139.21 29.7497 139.622 29.2997 139.921 28.7356C140.22 28.1716 140.369 27.5235 140.369 26.7915Z" fill=""/>
<path d="M151.278 29.9417C151.182 29.7977 151.134 29.6597 151.134 29.5277C151.146 29.3837 151.224 29.2697 151.367 29.1856C151.463 29.1016 151.57 29.0656 151.69 29.0776C151.821 29.0896 151.941 29.1496 152.048 29.2577C152.371 29.6777 152.759 30.0197 153.214 30.2837C153.68 30.5357 154.229 30.6617 154.863 30.6617C155.197 30.6617 155.526 30.6077 155.849 30.4997C156.183 30.3797 156.458 30.2057 156.673 29.9777C156.889 29.7377 156.996 29.4377 156.996 29.0776C156.996 28.7056 156.889 28.4056 156.673 28.1776C156.458 27.9496 156.177 27.7696 155.831 27.6376C155.496 27.5055 155.138 27.3915 154.755 27.2955C154.349 27.1875 153.955 27.0675 153.572 26.9355C153.19 26.7915 152.849 26.6175 152.55 26.4135C152.263 26.1975 152.03 25.9395 151.851 25.6394C151.672 25.3394 151.582 24.9734 151.582 24.5414C151.582 24.0373 151.72 23.5933 151.995 23.2093C152.269 22.8253 152.64 22.5252 153.106 22.3092C153.584 22.0932 154.122 21.9852 154.719 21.9852C155.018 21.9852 155.341 22.0272 155.687 22.1112C156.034 22.1832 156.375 22.3092 156.709 22.4892C157.044 22.6693 157.343 22.9153 157.606 23.2273C157.713 23.3353 157.767 23.4613 157.767 23.6053C157.767 23.7373 157.707 23.8573 157.588 23.9653C157.492 24.0373 157.379 24.0733 157.247 24.0733C157.128 24.0733 157.026 24.0253 156.942 23.9293C156.656 23.6053 156.315 23.3593 155.921 23.1913C155.526 23.0233 155.102 22.9393 154.648 22.9393C154.301 22.9393 153.972 22.9993 153.662 23.1193C153.363 23.2273 153.112 23.3953 152.909 23.6233C152.706 23.8513 152.604 24.1513 152.604 24.5234C152.628 24.8714 152.748 25.1534 152.963 25.3694C153.19 25.5854 153.482 25.7654 153.841 25.9095C154.212 26.0535 154.624 26.1855 155.078 26.3055C155.46 26.4015 155.825 26.5155 156.171 26.6475C156.53 26.7795 156.841 26.9475 157.104 27.1515C157.379 27.3435 157.594 27.5896 157.749 27.8896C157.916 28.1896 158 28.5676 158 29.0236C158 29.5517 157.851 30.0077 157.552 30.3917C157.265 30.7757 156.877 31.0698 156.387 31.2738C155.897 31.4778 155.353 31.5798 154.755 31.5798C154.11 31.5798 153.482 31.4538 152.873 31.2018C152.275 30.9498 151.744 30.5297 151.278 29.9417Z" fill=""/>
</svg>
