<svg width="159" height="25" viewBox="0 0 159 25" fill="none" xmlns="http://www.w3.org/2000/svg">
<path d="M6.04696 19.6641V5.79632H0V1.02925H17.9804V5.79632H11.9601V19.6641H6.04696Z" fill=""/>
<path d="M22.331 19.9892C21.5997 19.9892 20.9307 19.9169 20.3243 19.7725C19.7178 19.6461 19.1916 19.4294 18.7456 19.1224C18.2997 18.7974 17.9519 18.3821 17.7021 17.8765C17.4702 17.3528 17.3543 16.7208 17.3543 15.9805C17.3543 14.9151 17.5683 14.0484 17.9964 13.3803C18.4424 12.7122 19.0845 12.1975 19.9229 11.8364C20.7613 11.4753 21.778 11.2315 22.9732 11.1051C24.1861 10.9606 25.5685 10.8884 27.1204 10.8884V10.1842C27.1204 9.78693 27.0223 9.47093 26.8261 9.23619C26.6477 8.98339 26.4069 8.79379 26.1037 8.66739C25.8004 8.54099 25.4526 8.47779 25.0602 8.47779C24.7569 8.47779 24.4448 8.5139 24.1237 8.58613C23.8026 8.65836 23.535 8.78476 23.321 8.96533C23.1248 9.1459 23.0267 9.3987 23.0267 9.72373V9.83207H17.7824C17.7646 9.75984 17.7556 9.69664 17.7556 9.64247C17.7556 9.5883 17.7556 9.5251 17.7556 9.45287C17.7556 8.56808 18.0321 7.80065 18.5851 7.1506C19.1559 6.48249 19.9853 5.96786 21.0734 5.60672C22.1794 5.22752 23.535 5.03792 25.1404 5.03792C26.4426 5.03792 27.6466 5.18238 28.7526 5.47129C29.8585 5.7602 30.7504 6.24774 31.4282 6.93391C32.106 7.60202 32.445 8.52293 32.445 9.69664V15.2763C32.445 15.5652 32.5163 15.818 32.659 16.0347C32.8017 16.2333 33.0158 16.3326 33.3012 16.3326H34.2644V19.4475C34.0503 19.5739 33.6936 19.6912 33.1941 19.7996C32.7125 19.926 32.1417 19.9892 31.4817 19.9892C30.7682 19.9892 30.1439 19.9169 29.6088 19.7725C29.0736 19.628 28.6366 19.4204 28.2977 19.1495C27.9766 18.8787 27.7536 18.5627 27.6288 18.2015H27.4415C27.0669 18.5446 26.6299 18.8516 26.1304 19.1224C25.6488 19.3933 25.0958 19.6009 24.4715 19.7454C23.8472 19.9079 23.1337 19.9892 22.331 19.9892ZM24.4983 16.6306C24.8372 16.6306 25.1583 16.5854 25.4615 16.4951C25.7826 16.3868 26.068 16.2514 26.3177 16.0888C26.5674 15.9083 26.7637 15.7006 26.9064 15.4659C27.0491 15.2131 27.1204 14.9422 27.1204 14.6533V13.4345C26.068 13.4345 25.2118 13.5157 24.5518 13.6782C23.9096 13.8407 23.4369 14.0574 23.1337 14.3283C22.8305 14.5991 22.6788 14.9151 22.6788 15.2763C22.6788 15.6374 22.768 15.9173 22.9464 16.1159C23.1248 16.3146 23.3477 16.45 23.6153 16.5222C23.9007 16.5944 24.195 16.6306 24.4983 16.6306Z" fill=""/>
<path d="M42.5319 19.9892C41.6757 19.9892 40.8195 19.8989 39.9633 19.7183C39.1249 19.5558 38.349 19.294 37.6355 18.9328C36.9398 18.5536 36.3779 18.0751 35.9498 17.4973C35.5217 16.9195 35.3077 16.2152 35.3077 15.3846C35.3077 15.3304 35.3077 15.2763 35.3077 15.2221C35.3077 15.1499 35.3166 15.0776 35.3344 15.0054H40.2844C40.2665 15.0596 40.2576 15.1138 40.2576 15.1679C40.2576 15.2221 40.2576 15.2672 40.2576 15.3034C40.2755 15.6284 40.3825 15.8992 40.5787 16.1159C40.7928 16.3326 41.0692 16.4951 41.4082 16.6035C41.7471 16.7118 42.1217 16.766 42.5319 16.766C42.7817 16.766 43.076 16.7479 43.4149 16.7118C43.7716 16.6757 44.0838 16.5854 44.3514 16.441C44.6189 16.2965 44.7527 16.0527 44.7527 15.7096C44.7527 15.4027 44.5922 15.177 44.2711 15.0325C43.9679 14.87 43.5576 14.7436 43.0403 14.6533C42.5409 14.545 41.9879 14.4366 41.3814 14.3283C40.7214 14.2199 40.0525 14.0845 39.3747 13.922C38.7147 13.7414 38.0993 13.4977 37.5285 13.1907C36.9577 12.8657 36.4939 12.4413 36.1371 11.9177C35.7982 11.394 35.6288 10.7169 35.6288 9.88624C35.6288 8.94727 35.8161 8.16179 36.1906 7.52979C36.5831 6.8978 37.1093 6.40123 37.7693 6.04009C38.4471 5.66089 39.2052 5.39906 40.0436 5.2546C40.8998 5.09209 41.7917 5.01083 42.7192 5.01083C43.5219 5.01083 44.3157 5.09209 45.1006 5.2546C45.9032 5.39906 46.6346 5.64283 47.2946 5.98592C47.9546 6.31094 48.4808 6.74431 48.8732 7.28602C49.2656 7.82774 49.4619 8.48682 49.4619 9.26327C49.4619 9.31744 49.4619 9.38967 49.4619 9.47996C49.4619 9.55219 49.4529 9.60636 49.4351 9.64247H44.5387V9.42579C44.5387 9.15493 44.4406 8.93825 44.2443 8.77573C44.066 8.59516 43.8252 8.46876 43.5219 8.39653C43.2365 8.30625 42.9422 8.2611 42.639 8.2611C42.5319 8.2611 42.3714 8.27013 42.1573 8.28819C41.9433 8.28819 41.7203 8.31528 41.4884 8.36945C41.2744 8.42362 41.0871 8.5139 40.9265 8.6403C40.7838 8.7667 40.7125 8.94727 40.7125 9.18202C40.7125 9.3987 40.8106 9.57927 41.0068 9.72373C41.2209 9.85013 41.4973 9.95847 41.8363 10.0488C42.193 10.121 42.5854 10.2022 43.0135 10.2925C43.6914 10.4189 44.4227 10.5453 45.2076 10.6717C45.9924 10.7801 46.7327 10.9787 47.4284 11.2676C48.1419 11.5385 48.7216 11.9628 49.1675 12.5406C49.6135 13.1004 49.8365 13.8949 49.8365 14.9242C49.8365 15.8992 49.6402 16.7208 49.2478 17.3889C48.8554 18.039 48.3202 18.5536 47.6424 18.9328C46.9646 19.312 46.1797 19.5829 45.2878 19.7454C44.4138 19.9079 43.4952 19.9892 42.5319 19.9892Z" fill=""/>
<path d="M52.3603 19.6641V0H57.6849V10.8342L62.2067 5.36295H68.4142L63.1967 11.1322L68.548 19.6641H62.501L59.5311 14.7616L57.6849 16.5764V19.6641H52.3603Z" fill=""/>
<path d="M78.849 19.9892C77.5826 19.9892 76.3964 19.8899 75.2904 19.6912C74.2023 19.5107 73.2391 19.1947 72.4007 18.7432C71.5802 18.2737 70.9291 17.6327 70.4475 16.8202C69.9837 15.9895 69.7518 14.9512 69.7518 13.7053C69.7518 13.6692 69.7518 13.6241 69.7518 13.5699C69.7518 13.4977 69.7608 13.4254 69.7786 13.3532H75.3707C75.3529 13.4254 75.3439 13.4977 75.3439 13.5699C75.3439 13.6241 75.3439 13.6782 75.3439 13.7324C75.3439 14.2741 75.4688 14.6894 75.7185 14.9783C75.9683 15.2672 76.3161 15.4659 76.762 15.5742C77.2258 15.6645 77.7431 15.7096 78.3139 15.7096C78.528 15.7096 78.7509 15.7096 78.9828 15.7096C79.2326 15.6916 79.4644 15.6645 79.6785 15.6284C79.9104 15.5742 80.1155 15.502 80.2939 15.4117C80.4901 15.3214 80.6417 15.204 80.7488 15.0596C80.8558 14.8971 80.9093 14.6984 80.9093 14.4637C80.9093 14.1206 80.7577 13.8498 80.4544 13.6511C80.1512 13.4525 79.7409 13.281 79.2236 13.1365C78.7063 12.9921 78.1266 12.8566 77.4845 12.7302C76.8423 12.6038 76.1734 12.4594 75.4777 12.2969C74.7821 12.1163 74.1131 11.8906 73.471 11.6197C72.8288 11.3489 72.2491 11.0058 71.7318 10.5905C71.2145 10.1571 70.8043 9.62441 70.501 8.99242C70.1978 8.34236 70.0462 7.56591 70.0462 6.66306C70.0462 5.57963 70.2691 4.65872 70.7151 3.90032C71.161 3.14193 71.7675 2.52799 72.5345 2.0585C73.3194 1.58902 74.2023 1.24594 75.1834 1.02925C76.1823 0.812567 77.2258 0.704224 78.3139 0.704224C79.4198 0.704224 80.4544 0.821595 81.4177 1.05634C82.3987 1.27302 83.2639 1.61611 84.013 2.08559C84.7622 2.55507 85.3509 3.15096 85.779 3.87324C86.2071 4.59552 86.43 5.45323 86.4479 6.44637V6.7714H80.9093V6.66306C80.9093 6.33803 80.829 6.03106 80.6685 5.74215C80.5079 5.45323 80.2493 5.21849 79.8925 5.03792C79.5536 4.85735 79.0988 4.76706 78.528 4.76706C77.9928 4.76706 77.538 4.82124 77.1634 4.92958C76.8066 5.03792 76.5391 5.1914 76.3607 5.39003C76.1823 5.5706 76.0931 5.76923 76.0931 5.98592C76.0931 6.329 76.2447 6.60888 76.548 6.82557C76.8512 7.04225 77.2615 7.22282 77.7788 7.36728C78.2961 7.51174 78.8758 7.64717 79.518 7.77356C80.1601 7.89996 80.829 8.04442 81.5247 8.20693C82.2204 8.35139 82.8893 8.55002 83.5314 8.80282C84.1736 9.05562 84.7533 9.38967 85.2706 9.80498C85.7879 10.2022 86.1982 10.6988 86.5014 11.2947C86.8046 11.8906 86.9563 12.6219 86.9563 13.4886C86.9563 15.0235 86.5995 16.2694 85.886 17.2264C85.1903 18.1835 84.2271 18.8877 82.9963 19.3391C81.7833 19.7725 80.4009 19.9892 78.849 19.9892Z" fill=""/>
<path d="M89.5431 25V5.36295H93.8776L94.3325 7.39437H94.5198C95.0192 6.54568 95.6346 5.94077 96.366 5.57963C97.0973 5.21849 97.9178 5.03792 98.8276 5.03792C100.076 5.03792 101.146 5.3178 102.038 5.87757C102.93 6.41928 103.608 7.24991 104.072 8.36945C104.553 9.47093 104.794 10.8613 104.794 12.5406C104.794 14.2019 104.553 15.5832 104.072 16.6847C103.608 17.7862 102.93 18.6168 102.038 19.1766C101.146 19.7183 100.076 19.9892 98.8276 19.9892C98.3281 19.9892 97.8376 19.935 97.3559 19.8267C96.8922 19.7183 96.4641 19.5468 96.0716 19.312C95.6792 19.0592 95.3403 18.7432 95.0549 18.364H94.8676V25H89.5431ZM97.1687 16.0076C97.7216 16.0076 98.1676 15.8902 98.5065 15.6555C98.8454 15.4207 99.0862 15.0957 99.2289 14.6804C99.3894 14.2651 99.4697 13.7775 99.4697 13.2178V11.7822C99.4697 11.2225 99.3894 10.7349 99.2289 10.3196C99.0862 9.9043 98.8454 9.5883 98.5065 9.37161C98.1676 9.13687 97.7216 9.0195 97.1687 9.0195C96.6157 9.0195 96.1608 9.15493 95.8041 9.42579C95.4652 9.69664 95.2154 10.0668 95.0549 10.5363C94.8944 10.9877 94.8141 11.4933 94.8141 12.0531V12.9469C94.8141 13.3622 94.8587 13.7595 94.9479 14.1387C95.0371 14.4998 95.1708 14.8248 95.3492 15.1138C95.5454 15.3846 95.7952 15.6013 96.0984 15.7638C96.4016 15.9263 96.7584 16.0076 97.1687 16.0076Z" fill=""/>
<path d="M111.537 19.9892C110.805 19.9892 110.136 19.9169 109.53 19.7725C108.923 19.6461 108.397 19.4294 107.951 19.1224C107.505 18.7974 107.158 18.3821 106.908 17.8765C106.676 17.3528 106.56 16.7208 106.56 15.9805C106.56 14.9151 106.774 14.0484 107.202 13.3803C107.648 12.7122 108.29 12.1975 109.129 11.8364C109.967 11.4753 110.984 11.2315 112.179 11.1051C113.392 10.9606 114.774 10.8884 116.326 10.8884V10.1842C116.326 9.78693 116.228 9.47093 116.032 9.23619C115.853 8.98339 115.613 8.79379 115.309 8.66739C115.006 8.54099 114.658 8.47779 114.266 8.47779C113.963 8.47779 113.65 8.5139 113.329 8.58613C113.008 8.65836 112.741 8.78476 112.527 8.96533C112.33 9.1459 112.232 9.3987 112.232 9.72373V9.83207H106.988C106.97 9.75984 106.961 9.69664 106.961 9.64247C106.961 9.5883 106.961 9.5251 106.961 9.45287C106.961 8.56808 107.238 7.80065 107.791 7.1506C108.362 6.48249 109.191 5.96786 110.279 5.60672C111.385 5.22752 112.741 5.03792 114.346 5.03792C115.648 5.03792 116.852 5.18238 117.958 5.47129C119.064 5.7602 119.956 6.24774 120.634 6.93391C121.312 7.60202 121.651 8.52293 121.651 9.69664V15.2763C121.651 15.5652 121.722 15.818 121.865 16.0347C122.007 16.2333 122.221 16.3326 122.507 16.3326H123.47V19.4475C123.256 19.5739 122.899 19.6912 122.4 19.7996C121.918 19.926 121.347 19.9892 120.687 19.9892C119.974 19.9892 119.35 19.9169 118.814 19.7725C118.279 19.628 117.842 19.4204 117.503 19.1495C117.182 18.8787 116.959 18.5627 116.834 18.2015H116.647C116.273 18.5446 115.836 18.8516 115.336 19.1224C114.854 19.3933 114.302 19.6009 113.677 19.7454C113.053 19.9079 112.339 19.9892 111.537 19.9892ZM113.704 16.6306C114.043 16.6306 114.364 16.5854 114.667 16.4951C114.988 16.3868 115.274 16.2514 115.523 16.0888C115.773 15.9083 115.969 15.7006 116.112 15.4659C116.255 15.2131 116.326 14.9422 116.326 14.6533V13.4345C115.274 13.4345 114.417 13.5157 113.757 13.6782C113.115 13.8407 112.643 14.0574 112.339 14.3283C112.036 14.5991 111.885 14.9151 111.885 15.2763C111.885 15.6374 111.974 15.9173 112.152 16.1159C112.33 16.3146 112.553 16.45 112.821 16.5222C113.106 16.5944 113.401 16.6306 113.704 16.6306Z" fill=""/>
<path d="M132.514 19.9892C130.908 19.9892 129.508 19.7183 128.313 19.1766C127.135 18.6168 126.217 17.7862 125.557 16.6847C124.897 15.5652 124.567 14.1748 124.567 12.5135C124.567 10.8342 124.897 9.44384 125.557 8.34236C126.217 7.22282 127.135 6.3922 128.313 5.85049C129.508 5.29072 130.908 5.01083 132.514 5.01083C133.584 5.01083 134.592 5.12821 135.537 5.36295C136.482 5.59769 137.312 5.95883 138.025 6.44637C138.739 6.93391 139.292 7.56591 139.684 8.34236C140.095 9.11882 140.3 10.0488 140.3 11.1322H135.136C135.136 10.5724 135.029 10.112 134.815 9.75081C134.618 9.38967 134.324 9.12784 133.932 8.96533C133.539 8.78476 133.067 8.69447 132.514 8.69447C131.889 8.69447 131.381 8.82087 130.988 9.07367C130.614 9.30841 130.337 9.66053 130.159 10.13C129.981 10.5814 129.891 11.1231 129.891 11.7551V13.299C129.891 13.931 129.981 14.4727 130.159 14.9242C130.355 15.3756 130.65 15.7277 131.042 15.9805C131.452 16.2152 131.978 16.3326 132.621 16.3326C133.209 16.3326 133.7 16.2514 134.092 16.0888C134.502 15.9083 134.815 15.6374 135.029 15.2763C135.243 14.8971 135.35 14.4186 135.35 13.8407H140.3C140.3 14.9242 140.095 15.8631 139.684 16.6576C139.292 17.4341 138.739 18.0661 138.025 18.5536C137.312 19.0412 136.482 19.4023 135.537 19.6371C134.592 19.8718 133.584 19.9892 132.514 19.9892Z" fill=""/>
<path d="M150.681 19.9892C148.986 19.9892 147.515 19.7273 146.266 19.2037C145.035 18.662 144.081 17.8404 143.403 16.7389C142.743 15.6374 142.413 14.229 142.413 12.5135C142.413 10.8342 142.743 9.44384 143.403 8.34236C144.063 7.24088 144.982 6.41928 146.159 5.87757C147.354 5.3178 148.755 5.03792 150.36 5.03792C152.054 5.03792 153.49 5.30878 154.668 5.85049C155.863 6.37414 156.773 7.18671 157.397 8.28819C158.021 9.38967 158.333 10.7981 158.333 12.5135V13.4345H147.738C147.738 14.0845 147.827 14.6443 148.005 15.1138C148.202 15.5832 148.505 15.9444 148.915 16.1972C149.343 16.4319 149.896 16.5493 150.574 16.5493C151.056 16.5493 151.457 16.4951 151.778 16.3868C152.117 16.2784 152.384 16.134 152.581 15.9534C152.795 15.7548 152.946 15.5291 153.036 15.2763C153.125 15.0235 153.169 14.7526 153.169 14.4637H158.333C158.333 15.3124 158.173 16.0798 157.852 16.766C157.531 17.4521 157.049 18.039 156.407 18.5265C155.765 18.996 154.962 19.3572 153.999 19.61C153.053 19.8628 151.947 19.9892 150.681 19.9892ZM147.765 10.8884H152.955C152.955 10.5092 152.902 10.1752 152.795 9.88624C152.688 9.57927 152.527 9.32647 152.313 9.12784C152.117 8.91116 151.867 8.74865 151.564 8.6403C151.279 8.53196 150.949 8.47779 150.574 8.47779C149.985 8.47779 149.495 8.5771 149.102 8.77573C148.71 8.97436 148.407 9.25424 148.193 9.61538C147.979 9.95847 147.836 10.3828 147.765 10.8884Z" fill=""/>
</svg>
